<?xml version="1.0" encoding="UTF-8" standalone="no"?>
<!DOCTYPE svg PUBLIC "-//W3C//DTD SVG 1.1//EN"
 "http://www.w3.org/Graphics/SVG/1.1/DTD/svg11.dtd">
<!-- Generated by graphviz version 8.0.5 (20230430.1635)
 -->
<!-- Title: allvsall Pages: 1 -->
<svg width="2327pt" height="260pt"
 viewBox="0.00 0.00 2327.25 260.00" xmlns="http://www.w3.org/2000/svg" xmlns:xlink="http://www.w3.org/1999/xlink">
<g id="graph0" class="graph" transform="scale(1 1) rotate(0) translate(4 256)">
<title>allvsall</title>
<polygon fill="white" stroke="none" points="-4,4 -4,-256 2323.25,-256 2323.25,4 -4,4"/>
<!-- cartSyst -->
<g id="node1" class="node">
<title>cartSyst</title>
<polygon fill="mistyrose" stroke="black" points="180.25,-36 107.25,-36 107.25,0 180.25,0 180.25,-36"/>
<text text-anchor="middle" x="143.75" y="-12.95" font-family="Times,serif" font-size="14.00">A:cartSyst</text>
</g>
<!-- neglectCurv -->
<g id="node2" class="node">
<title>neglectCurv</title>
<polygon fill="mistyrose" stroke="black" points="1932.5,-36 1837,-36 1837,0 1932.5,0 1932.5,-36"/>
<text text-anchor="middle" x="1884.75" y="-12.95" font-family="Times,serif" font-size="14.00">A:neglectCurv</text>
</g>
<!-- cartSyst&#45;&gt;neglectCurv -->
<g id="edge1" class="edge">
<title>cartSyst&#45;&gt;neglectCurv</title>
<path fill="none" stroke="black" d="M165.54,-36.46C175.09,-43.39 186.83,-50.45 198.75,-54 241.87,-66.86 1775.15,-65.12 1818.75,-54 1829.08,-51.37 1839.53,-46.75 1848.98,-41.69"/>
<polygon fill="black" stroke="black" points="1850.45,-44.3 1857.41,-36.31 1846.99,-38.22 1850.45,-44.3"/>
</g>
<!-- targetXAxis -->
<g id="node3" class="node">
<title>targetXAxis</title>
<polygon fill="mistyrose" stroke="black" points="1818.5,-36 1723,-36 1723,0 1818.5,0 1818.5,-36"/>
<text text-anchor="middle" x="1770.75" y="-12.95" font-family="Times,serif" font-size="14.00">A:targetXAxis</text>
</g>
<!-- targetXAxis&#45;&gt;neglectCurv -->
<g id="edge2" class="edge">
<title>targetXAxis&#45;&gt;neglectCurv</title>
<path fill="none" stroke="black" d="M1818.84,-18C1821.16,-18 1823.47,-18 1825.78,-18"/>
<polygon fill="black" stroke="black" points="1825.61,-21.5 1835.61,-18 1825.61,-14.5 1825.61,-21.5"/>
</g>
<!-- constAccel -->
<g id="node4" class="node">
<title>constAccel</title>
<polygon fill="mistyrose" stroke="black" points="89.5,-36 0,-36 0,0 89.5,0 89.5,-36"/>
<text text-anchor="middle" x="44.75" y="-12.95" font-family="Times,serif" font-size="14.00">A:constAccel</text>
</g>
<!-- accelXZero -->
<g id="node5" class="node">
<title>accelXZero</title>
<polygon fill="mistyrose" stroke="black" points="1205,-36 1112.5,-36 1112.5,0 1205,0 1205,-36"/>
<text text-anchor="middle" x="1158.75" y="-12.95" font-family="Times,serif" font-size="14.00">A:accelXZero</text>
</g>
<!-- constAccel&#45;&gt;accelXZero -->
<g id="edge3" class="edge">
<title>constAccel&#45;&gt;accelXZero</title>
<path fill="none" stroke="black" d="M69.64,-36.49C80.47,-43.42 93.65,-50.47 106.75,-54 159.7,-68.26 1040.66,-67.72 1093.75,-54 1103.75,-51.42 1113.85,-46.93 1123.01,-41.98"/>
<polygon fill="black" stroke="black" points="1124.61,-44.52 1131.53,-36.5 1121.12,-38.45 1124.61,-44.52"/>
</g>
<!-- accelYGravity -->
<g id="node6" class="node">
<title>accelYGravity</title>
<polygon fill="mistyrose" stroke="black" points="1583.88,-36 1475.62,-36 1475.62,0 1583.88,0 1583.88,-36"/>
<text text-anchor="middle" x="1529.75" y="-12.95" font-family="Times,serif" font-size="14.00">A:accelYGravity</text>
</g>
<!-- constAccel&#45;&gt;accelYGravity -->
<g id="edge4" class="edge">
<title>constAccel&#45;&gt;accelYGravity</title>
<path fill="none" stroke="black" d="M69.64,-36.49C80.47,-43.42 93.65,-50.47 106.75,-54 179.22,-73.52 1384.7,-71.24 1457.75,-54 1469.09,-51.32 1480.68,-46.57 1491.15,-41.38"/>
<polygon fill="black" stroke="black" points="1492.57,-44.07 1499.81,-36.33 1489.32,-37.86 1492.57,-44.07"/>
</g>
<!-- neglectDrag -->
<g id="node7" class="node">
<title>neglectDrag</title>
<polygon fill="mistyrose" stroke="black" points="412.5,-36 317,-36 317,0 412.5,0 412.5,-36"/>
<text text-anchor="middle" x="364.75" y="-12.95" font-family="Times,serif" font-size="14.00">A:neglectDrag</text>
</g>
<!-- constAccel&#45;&gt;neglectDrag -->
<g id="edge5" class="edge">
<title>constAccel&#45;&gt;neglectDrag</title>
<path fill="none" stroke="black" d="M69.64,-36.49C80.47,-43.42 93.65,-50.47 106.75,-54 189.15,-76.19 216.06,-75.08 298.75,-54 309.08,-51.37 319.53,-46.75 328.98,-41.69"/>
<polygon fill="black" stroke="black" points="330.45,-44.3 337.41,-36.31 326.99,-38.22 330.45,-44.3"/>
</g>
<!-- freeFlight -->
<g id="node8" class="node">
<title>freeFlight</title>
<polygon fill="mistyrose" stroke="black" points="513.12,-36 430.38,-36 430.38,0 513.12,0 513.12,-36"/>
<text text-anchor="middle" x="471.75" y="-12.95" font-family="Times,serif" font-size="14.00">A:freeFlight</text>
</g>
<!-- constAccel&#45;&gt;freeFlight -->
<g id="edge6" class="edge">
<title>constAccel&#45;&gt;freeFlight</title>
<path fill="none" stroke="black" d="M69.64,-36.49C80.47,-43.42 93.65,-50.47 106.75,-54 172.41,-71.68 347.29,-72.4 412.75,-54 421.8,-51.46 430.84,-47.1 439.02,-42.27"/>
<polygon fill="black" stroke="black" points="440.6,-44.78 447.19,-36.48 436.86,-38.87 440.6,-44.78"/>
</g>
<!-- yAxisGravity -->
<g id="node9" class="node">
<title>yAxisGravity</title>
<polygon fill="mistyrose" stroke="black" points="1705.25,-36 1602.25,-36 1602.25,0 1705.25,0 1705.25,-36"/>
<text text-anchor="middle" x="1653.75" y="-12.95" font-family="Times,serif" font-size="14.00">A:yAxisGravity</text>
</g>
<!-- accelYGravity&#45;&gt;yAxisGravity -->
<g id="edge7" class="edge">
<title>accelYGravity&#45;&gt;yAxisGravity</title>
<path fill="none" stroke="black" d="M1584,-18C1586.34,-18 1588.68,-18 1591.02,-18"/>
<polygon fill="black" stroke="black" points="1590.98,-21.5 1600.98,-18 1590.98,-14.5 1590.98,-21.5"/>
</g>
<!-- ixVel -->
<g id="node10" class="node">
<title>ixVel</title>
<polygon fill="#bbffff" stroke="black" points="1147.88,-108 1063.62,-108 1063.62,-72 1147.88,-72 1147.88,-108"/>
<text text-anchor="middle" x="1105.75" y="-84.95" font-family="Times,serif" font-size="14.00">DD:speedIX</text>
</g>
<!-- speed -->
<g id="node11" class="node">
<title>speed</title>
<polygon fill="#bbffff" stroke="black" points="1769.5,-108 1686,-108 1686,-72 1769.5,-72 1769.5,-108"/>
<text text-anchor="middle" x="1727.75" y="-84.95" font-family="Times,serif" font-size="14.00">DD:vecMag</text>
</g>
<!-- ixVel&#45;&gt;speed -->
<g id="edge8" class="edge">
<title>ixVel&#45;&gt;speed</title>
<path fill="none" stroke="black" d="M1148.21,-94.28C1231.59,-102.43 1422.62,-119.94 1583.75,-126 1621.06,-127.4 1631.77,-135.97 1667.75,-126 1676.92,-123.46 1686.1,-119.1 1694.42,-114.28"/>
<polygon fill="black" stroke="black" points="1696.1,-116.73 1702.74,-108.48 1692.4,-110.79 1696.1,-116.73"/>
</g>
<!-- iyVel -->
<g id="node12" class="node">
<title>iyVel</title>
<polygon fill="#bbffff" stroke="black" points="1667.88,-108 1583.62,-108 1583.62,-72 1667.88,-72 1667.88,-108"/>
<text text-anchor="middle" x="1625.75" y="-84.95" font-family="Times,serif" font-size="14.00">DD:speedIY</text>
</g>
<!-- iyVel&#45;&gt;speed -->
<g id="edge9" class="edge">
<title>iyVel&#45;&gt;speed</title>
<path fill="none" stroke="black" d="M1667.98,-90C1670.29,-90 1672.6,-90 1674.92,-90"/>
<polygon fill="black" stroke="black" points="1674.73,-93.5 1684.73,-90 1674.73,-86.5 1674.73,-93.5"/>
</g>
<!-- projSpeed -->
<g id="node13" class="node">
<title>projSpeed</title>
<polygon fill="palegreen" stroke="black" points="831.5,-108 754,-108 754,-72 831.5,-72 831.5,-108"/>
<text text-anchor="middle" x="792.75" y="-84.95" font-family="Times,serif" font-size="14.00">GD:rectVel</text>
</g>
<!-- pointMass -->
<g id="node14" class="node">
<title>pointMass</title>
<polygon fill="mistyrose" stroke="black" points="843,-36 756.5,-36 756.5,0 843,0 843,-36"/>
<text text-anchor="middle" x="799.75" y="-12.95" font-family="Times,serif" font-size="14.00">A:pointMass</text>
</g>
<!-- projSpeed&#45;&gt;pointMass -->
<g id="edge10" class="edge">
<title>projSpeed&#45;&gt;pointMass</title>
<path fill="none" stroke="black" d="M794.48,-71.7C795.23,-64.24 796.12,-55.32 796.95,-46.97"/>
<polygon fill="black" stroke="black" points="800.53,-47.4 798.04,-37.1 793.56,-46.71 800.53,-47.4"/>
</g>
<!-- timeStartZero -->
<g id="node15" class="node">
<title>timeStartZero</title>
<polygon fill="mistyrose" stroke="black" points="636.38,-36 531.12,-36 531.12,0 636.38,0 636.38,-36"/>
<text text-anchor="middle" x="583.75" y="-12.95" font-family="Times,serif" font-size="14.00">A:timeStartZero</text>
</g>
<!-- projSpeed&#45;&gt;timeStartZero -->
<g id="edge11" class="edge">
<title>projSpeed&#45;&gt;timeStartZero</title>
<path fill="none" stroke="black" d="M753.74,-75.1C750.7,-74.04 747.68,-73 744.75,-72 712.62,-61.02 676.74,-49.17 647.02,-39.47"/>
<polygon fill="black" stroke="black" points="648.38,-35.9 637.78,-36.13 646.21,-42.56 648.38,-35.9"/>
</g>
<!-- accelerationTM -->
<g id="node16" class="node">
<title>accelerationTM</title>
<polygon fill="pink" stroke="black" points="966.75,-36 860.75,-36 860.75,0 966.75,0 966.75,-36"/>
<text text-anchor="middle" x="913.75" y="-12.95" font-family="Times,serif" font-size="14.00">TM:acceleration</text>
</g>
<!-- projSpeed&#45;&gt;accelerationTM -->
<g id="edge12" class="edge">
<title>projSpeed&#45;&gt;accelerationTM</title>
<path fill="none" stroke="black" d="M822.97,-71.52C838.54,-62.51 857.7,-51.42 874.41,-41.76"/>
<polygon fill="black" stroke="black" points="876.01,-44.3 882.91,-36.26 872.51,-38.24 876.01,-44.3"/>
</g>
<!-- projPos -->
<g id="node17" class="node">
<title>projPos</title>
<polygon fill="palegreen" stroke="black" points="736.25,-108 657.25,-108 657.25,-72 736.25,-72 736.25,-108"/>
<text text-anchor="middle" x="696.75" y="-84.95" font-family="Times,serif" font-size="14.00">GD:rectPos</text>
</g>
<!-- projPos&#45;&gt;projSpeed -->
<g id="edge16" class="edge">
<title>projPos&#45;&gt;projSpeed</title>
<path fill="none" stroke="black" d="M736.5,-90C738.55,-90 740.61,-90 742.66,-90"/>
<polygon fill="black" stroke="black" points="742.64,-93.5 752.64,-90 742.64,-86.5 742.64,-93.5"/>
</g>
<!-- projPos&#45;&gt;pointMass -->
<g id="edge13" class="edge">
<title>projPos&#45;&gt;pointMass</title>
<path fill="none" stroke="black" d="M722.48,-71.52C735.48,-62.68 751.43,-51.84 765.46,-42.3"/>
<polygon fill="black" stroke="black" points="767.05,-44.78 773.35,-36.26 763.11,-38.99 767.05,-44.78"/>
</g>
<!-- projPos&#45;&gt;timeStartZero -->
<g id="edge14" class="edge">
<title>projPos&#45;&gt;timeStartZero</title>
<path fill="none" stroke="black" d="M668.53,-71.52C654.13,-62.6 636.43,-51.63 620.93,-42.03"/>
<polygon fill="black" stroke="black" points="622.96,-38.55 612.61,-36.26 619.27,-44.5 622.96,-38.55"/>
</g>
<!-- velocityTM -->
<g id="node18" class="node">
<title>velocityTM</title>
<polygon fill="pink" stroke="black" points="738.88,-36 654.62,-36 654.62,0 738.88,0 738.88,-36"/>
<text text-anchor="middle" x="696.75" y="-12.95" font-family="Times,serif" font-size="14.00">TM:velocity</text>
</g>
<!-- projPos&#45;&gt;velocityTM -->
<g id="edge15" class="edge">
<title>projPos&#45;&gt;velocityTM</title>
<path fill="none" stroke="black" d="M696.75,-71.7C696.75,-64.24 696.75,-55.32 696.75,-46.97"/>
<polygon fill="black" stroke="black" points="700.25,-47.1 696.75,-37.1 693.25,-47.1 700.25,-47.1"/>
</g>
<!-- velocity -->
<g id="node19" class="node">
<title>velocity</title>
<polygon fill="palegreen" stroke="black" points="286.75,-108 210.75,-108 210.75,-72 286.75,-72 286.75,-108"/>
<text text-anchor="middle" x="248.75" y="-84.95" font-family="Times,serif" font-size="14.00">GD:velVec</text>
</g>
<!-- velocity&#45;&gt;cartSyst -->
<g id="edge18" class="edge">
<title>velocity&#45;&gt;cartSyst</title>
<path fill="none" stroke="black" d="M222.52,-71.52C209.27,-62.68 193.01,-51.84 178.7,-42.3"/>
<polygon fill="black" stroke="black" points="180.9,-38.9 170.64,-36.26 177.02,-44.72 180.9,-38.9"/>
</g>
<!-- velocity&#45;&gt;constAccel -->
<g id="edge19" class="edge">
<title>velocity&#45;&gt;constAccel</title>
<path fill="none" stroke="black" d="M210.38,-75.83C179.18,-65.13 134.76,-49.88 99.77,-37.88"/>
<polygon fill="black" stroke="black" points="101.3,-34.36 90.71,-34.43 99.03,-40.98 101.3,-34.36"/>
</g>
<!-- velocity&#45;&gt;projSpeed -->
<g id="edge21" class="edge">
<title>velocity&#45;&gt;projSpeed</title>
<path fill="none" stroke="black" d="M286.9,-96.25C386.36,-111.98 651.66,-150.33 735.75,-126 744.46,-123.48 753.12,-119.19 760.97,-114.42"/>
<polygon fill="black" stroke="black" points="762.62,-116.87 769.07,-108.47 758.79,-111.01 762.62,-116.87"/>
</g>
<!-- velocity&#45;&gt;timeStartZero -->
<g id="edge20" class="edge">
<title>velocity&#45;&gt;timeStartZero</title>
<path fill="none" stroke="black" d="M286.92,-82.53C337.87,-73.69 431.09,-56.81 520.16,-36.28"/>
<polygon fill="black" stroke="black" points="520.77,-39.5 529.72,-33.83 519.18,-32.68 520.77,-39.5"/>
</g>
<!-- twoDMotion -->
<g id="node20" class="node">
<title>twoDMotion</title>
<polygon fill="mistyrose" stroke="black" points="298.75,-36 198.75,-36 198.75,0 298.75,0 298.75,-36"/>
<text text-anchor="middle" x="248.75" y="-12.95" font-family="Times,serif" font-size="14.00">A:twoDMotion</text>
</g>
<!-- velocity&#45;&gt;twoDMotion -->
<g id="edge17" class="edge">
<title>velocity&#45;&gt;twoDMotion</title>
<path fill="none" stroke="black" d="M248.75,-71.7C248.75,-64.24 248.75,-55.32 248.75,-46.97"/>
<polygon fill="black" stroke="black" points="252.25,-47.1 248.75,-37.1 245.25,-47.1 252.25,-47.1"/>
</g>
<!-- position -->
<g id="node21" class="node">
<title>position</title>
<polygon fill="palegreen" stroke="black" points="600.88,-108 522.62,-108 522.62,-72 600.88,-72 600.88,-108"/>
<text text-anchor="middle" x="561.75" y="-84.95" font-family="Times,serif" font-size="14.00">GD:posVec</text>
</g>
<!-- position&#45;&gt;cartSyst -->
<g id="edge23" class="edge">
<title>position&#45;&gt;cartSyst</title>
<path fill="none" stroke="black" d="M522.39,-86.16C455.79,-80.75 316.68,-66.9 191.24,-36.06"/>
<polygon fill="black" stroke="black" points="192.24,-32.46 181.69,-33.42 190.54,-39.25 192.24,-32.46"/>
</g>
<!-- position&#45;&gt;constAccel -->
<g id="edge24" class="edge">
<title>position&#45;&gt;constAccel</title>
<path fill="none" stroke="black" d="M522.22,-87.11C443.33,-82.77 260.78,-69.93 100.51,-36.39"/>
<polygon fill="black" stroke="black" points="101.49,-32.81 90.98,-34.15 100.04,-39.66 101.49,-32.81"/>
</g>
<!-- position&#45;&gt;timeStartZero -->
<g id="edge25" class="edge">
<title>position&#45;&gt;timeStartZero</title>
<path fill="none" stroke="black" d="M567.19,-71.7C569.59,-64.07 572.46,-54.92 575.14,-46.4"/>
<polygon fill="black" stroke="black" points="578.72,-47.69 578.37,-37.1 572.04,-45.59 578.72,-47.69"/>
</g>
<!-- position&#45;&gt;projPos -->
<g id="edge26" class="edge">
<title>position&#45;&gt;projPos</title>
<path fill="none" stroke="black" d="M601.3,-90C616.2,-90 631.1,-90 646,-90"/>
<polygon fill="black" stroke="black" points="645.86,-93.5 655.86,-90 645.86,-86.5 645.86,-93.5"/>
</g>
<!-- position&#45;&gt;twoDMotion -->
<g id="edge22" class="edge">
<title>position&#45;&gt;twoDMotion</title>
<path fill="none" stroke="black" d="M522.38,-81.73C474.33,-72.66 390.41,-56.13 309.57,-36.36"/>
<polygon fill="black" stroke="black" points="310.76,-32.81 300.21,-33.81 309.08,-39.6 310.76,-32.81"/>
</g>
<!-- flightduration -->
<g id="node22" class="node">
<title>flightduration</title>
<polygon fill="#fff68f" stroke="black" points="1446.38,-180 1305.12,-180 1305.12,-144 1446.38,-144 1446.38,-180"/>
<text text-anchor="middle" x="1375.75" y="-156.95" font-family="Times,serif" font-size="14.00">IM:calOfLandingTime</text>
</g>
<!-- flightduration&#45;&gt;targetXAxis -->
<g id="edge29" class="edge">
<title>flightduration&#45;&gt;targetXAxis</title>
<path fill="none" stroke="black" d="M1433.18,-143.52C1460.37,-134.36 1492.9,-122.12 1520.75,-108 1546.48,-94.96 1548.41,-83.76 1574.75,-72 1630.32,-47.19 1650.72,-52.64 1711.91,-36.66"/>
<polygon fill="black" stroke="black" points="1712.79,-39.78 1721.53,-33.78 1710.96,-33.02 1712.79,-39.78"/>
</g>
<!-- flightduration&#45;&gt;accelYGravity -->
<g id="edge31" class="edge">
<title>flightduration&#45;&gt;accelYGravity</title>
<path fill="none" stroke="black" d="M1394.63,-143.59C1421.91,-118.43 1472.46,-71.83 1503.4,-43.3"/>
<polygon fill="black" stroke="black" points="1505.21,-46.46 1510.19,-37.11 1500.47,-41.32 1505.21,-46.46"/>
</g>
<!-- flightduration&#45;&gt;yAxisGravity -->
<g id="edge27" class="edge">
<title>flightduration&#45;&gt;yAxisGravity</title>
<path fill="none" stroke="black" d="M1407.02,-143.63C1440.21,-125.34 1494.3,-95.93 1541.75,-72 1562.62,-61.48 1585.95,-50.34 1605.89,-41.01"/>
<polygon fill="black" stroke="black" points="1607.09,-43.84 1614.68,-36.44 1604.13,-37.49 1607.09,-43.84"/>
</g>
<!-- flightduration&#45;&gt;iyVel -->
<g id="edge34" class="edge">
<title>flightduration&#45;&gt;iyVel</title>
<path fill="none" stroke="black" d="M1441.43,-143.55C1479.07,-133.42 1527.14,-120.28 1569.75,-108 1570.85,-107.68 1571.96,-107.36 1573.08,-107.04"/>
<polygon fill="black" stroke="black" points="1573.68,-110.21 1582.29,-104.03 1571.7,-103.5 1573.68,-110.21"/>
</g>
<!-- flightduration&#45;&gt;timeStartZero -->
<g id="edge32" class="edge">
<title>flightduration&#45;&gt;timeStartZero</title>
<path fill="none" stroke="black" d="M1304.75,-145.32C1301.71,-144.84 1298.71,-144.39 1295.75,-144 1224.27,-134.48 710.98,-142.66 647.75,-108 623.19,-94.54 605.72,-67.15 595.31,-46.29"/>
<polygon fill="black" stroke="black" points="598.06,-44.93 590.63,-37.38 591.73,-47.91 598.06,-44.93"/>
</g>
<!-- flightduration&#45;&gt;position -->
<g id="edge35" class="edge">
<title>flightduration&#45;&gt;position</title>
<path fill="none" stroke="black" d="M1304.75,-145.31C1301.72,-144.83 1298.71,-144.39 1295.75,-144 995.26,-104.38 912.86,-162.74 614.75,-108 613.77,-107.82 612.79,-107.63 611.8,-107.42"/>
<polygon fill="black" stroke="black" points="612.66,-103.79 602.11,-104.85 611.02,-110.59 612.66,-103.79"/>
</g>
<!-- launchOrigin -->
<g id="node23" class="node">
<title>launchOrigin</title>
<polygon fill="mistyrose" stroke="black" points="1324.12,-36 1223.38,-36 1223.38,0 1324.12,0 1324.12,-36"/>
<text text-anchor="middle" x="1273.75" y="-12.95" font-family="Times,serif" font-size="14.00">A:launchOrigin</text>
</g>
<!-- flightduration&#45;&gt;launchOrigin -->
<g id="edge28" class="edge">
<title>flightduration&#45;&gt;launchOrigin</title>
<path fill="none" stroke="black" d="M1363.24,-143.59C1345.48,-118.86 1312.83,-73.41 1292.26,-44.77"/>
<polygon fill="black" stroke="black" points="1294.72,-43.19 1286.04,-37.11 1289.03,-47.27 1294.72,-43.19"/>
</g>
<!-- posXDirection -->
<g id="node24" class="node">
<title>posXDirection</title>
<polygon fill="mistyrose" stroke="black" points="1094.25,-36 985.25,-36 985.25,0 1094.25,0 1094.25,-36"/>
<text text-anchor="middle" x="1039.75" y="-12.95" font-family="Times,serif" font-size="14.00">A:posXDirection</text>
</g>
<!-- flightduration&#45;&gt;posXDirection -->
<g id="edge30" class="edge">
<title>flightduration&#45;&gt;posXDirection</title>
<path fill="none" stroke="black" d="M1341.35,-143.61C1303.81,-124.9 1241.69,-94.78 1186.75,-72 1159.32,-60.63 1128.47,-49.29 1102.14,-40.03"/>
<polygon fill="black" stroke="black" points="1103.5,-36.46 1092.91,-36.46 1101.2,-43.06 1103.5,-36.46"/>
</g>
<!-- gravAccelValue -->
<g id="node25" class="node">
<title>gravAccelValue</title>
<polygon fill="mistyrose" stroke="black" points="1457.62,-36 1341.88,-36 1341.88,0 1457.62,0 1457.62,-36"/>
<text text-anchor="middle" x="1399.75" y="-12.95" font-family="Times,serif" font-size="14.00">A:gravAccelValue</text>
</g>
<!-- flightduration&#45;&gt;gravAccelValue -->
<g id="edge33" class="edge">
<title>flightduration&#45;&gt;gravAccelValue</title>
<path fill="none" stroke="black" d="M1378.69,-143.59C1382.78,-119.4 1390.22,-75.36 1395.08,-46.65"/>
<polygon fill="black" stroke="black" points="1398.64,-47.55 1396.86,-37.11 1391.74,-46.39 1398.64,-47.55"/>
</g>
<!-- landingposition -->
<g id="node26" class="node">
<title>landingposition</title>
<polygon fill="#fff68f" stroke="black" points="1287,-180 1152.5,-180 1152.5,-144 1287,-144 1287,-180"/>
<text text-anchor="middle" x="1219.75" y="-156.95" font-family="Times,serif" font-size="14.00">IM:calOfLandingDist</text>
</g>
<!-- landingposition&#45;&gt;accelXZero -->
<g id="edge39" class="edge">
<title>landingposition&#45;&gt;accelXZero</title>
<path fill="none" stroke="black" d="M1215.01,-143.54C1209.8,-125.3 1200.69,-96.04 1189.75,-72 1185.69,-63.07 1180.54,-53.72 1175.61,-45.4"/>
<polygon fill="black" stroke="black" points="1178.2,-43.91 1170.01,-37.19 1172.22,-47.55 1178.2,-43.91"/>
</g>
<!-- landingposition&#45;&gt;yAxisGravity -->
<g id="edge36" class="edge">
<title>landingposition&#45;&gt;yAxisGravity</title>
<path fill="none" stroke="black" d="M1265.8,-143.54C1315.55,-124.91 1397.3,-94.98 1468.75,-72 1491.64,-64.64 1547.29,-48.8 1591.62,-36.34"/>
<polygon fill="black" stroke="black" points="1592.35,-39.49 1601.03,-33.41 1590.46,-32.75 1592.35,-39.49"/>
</g>
<!-- landingposition&#45;&gt;ixVel -->
<g id="edge41" class="edge">
<title>landingposition&#45;&gt;ixVel</title>
<path fill="none" stroke="black" d="M1191.28,-143.52C1176.61,-134.51 1158.55,-123.42 1142.82,-113.76"/>
<polygon fill="black" stroke="black" points="1145.21,-110.51 1134.86,-108.26 1141.55,-116.48 1145.21,-110.51"/>
</g>
<!-- landingposition&#45;&gt;position -->
<g id="edge42" class="edge">
<title>landingposition&#45;&gt;position</title>
<path fill="none" stroke="black" d="M1152.25,-145.5C1149.04,-144.95 1145.87,-144.45 1142.75,-144 909.93,-110.55 845.76,-152.24 614.75,-108 613.77,-107.81 612.79,-107.61 611.8,-107.4"/>
<polygon fill="black" stroke="black" points="612.67,-103.77 602.13,-104.78 611,-110.57 612.67,-103.77"/>
</g>
<!-- landingposition&#45;&gt;flightduration -->
<g id="edge43" class="edge">
<title>landingposition&#45;&gt;flightduration</title>
<path fill="none" stroke="black" d="M1287.39,-162C1289.55,-162 1291.71,-162 1293.86,-162"/>
<polygon fill="black" stroke="black" points="1293.65,-165.5 1303.65,-162 1293.65,-158.5 1293.65,-165.5"/>
</g>
<!-- landingposition&#45;&gt;launchOrigin -->
<g id="edge37" class="edge">
<title>landingposition&#45;&gt;launchOrigin</title>
<path fill="none" stroke="black" d="M1226.37,-143.59C1235.61,-119.29 1252.46,-74.97 1263.38,-46.27"/>
<polygon fill="black" stroke="black" points="1266.96,-47.7 1267.24,-37.11 1260.42,-45.21 1266.96,-47.7"/>
</g>
<!-- landingposition&#45;&gt;posXDirection -->
<g id="edge38" class="edge">
<title>landingposition&#45;&gt;posXDirection</title>
<path fill="none" stroke="black" d="M1211.04,-143.51C1200.51,-123.87 1181.13,-92.13 1156.75,-72 1141.15,-59.12 1121.92,-48.72 1103.59,-40.65"/>
<polygon fill="black" stroke="black" points="1105.1,-37.07 1094.52,-36.41 1102.38,-43.52 1105.1,-37.07"/>
</g>
<!-- landingposition&#45;&gt;gravAccelValue -->
<g id="edge40" class="edge">
<title>landingposition&#45;&gt;gravAccelValue</title>
<path fill="none" stroke="black" d="M1241.82,-143.59C1273.89,-118.29 1333.47,-71.29 1369.58,-42.8"/>
<polygon fill="black" stroke="black" points="1371.1,-45.27 1376.78,-36.33 1366.76,-39.78 1371.1,-45.27"/>
</g>
<!-- offset -->
<g id="node27" class="node">
<title>offset</title>
<polygon fill="#fff68f" stroke="black" points="1134.25,-180 1049.25,-180 1049.25,-144 1134.25,-144 1134.25,-180"/>
<text text-anchor="middle" x="1091.75" y="-156.95" font-family="Times,serif" font-size="14.00">IM:offsetIM</text>
</g>
<!-- offset&#45;&gt;posXDirection -->
<g id="edge44" class="edge">
<title>offset&#45;&gt;posXDirection</title>
<path fill="none" stroke="black" d="M1076.58,-143.53C1068.86,-133.72 1060.02,-120.88 1054.75,-108 1046.82,-88.61 1043.08,-65.19 1041.32,-47.25"/>
<polygon fill="black" stroke="black" points="1044.73,-47.02 1040.42,-37.34 1037.75,-47.6 1044.73,-47.02"/>
</g>
<!-- offset&#45;&gt;landingposition -->
<g id="edge45" class="edge">
<title>offset&#45;&gt;landingposition</title>
<path fill="none" stroke="black" d="M1134.75,-162C1136.91,-162 1139.07,-162 1141.22,-162"/>
<polygon fill="black" stroke="black" points="1141.02,-165.5 1151.02,-162 1141.02,-158.5 1141.02,-165.5"/>
</g>
<!-- message -->
<g id="node28" class="node">
<title>message</title>
<polygon fill="#fff68f" stroke="black" points="1031.12,-180 930.38,-180 930.38,-144 1031.12,-144 1031.12,-180"/>
<text text-anchor="middle" x="980.75" y="-156.95" font-family="Times,serif" font-size="14.00">IM:messageIM</text>
</g>
<!-- message&#45;&gt;posXDirection -->
<g id="edge46" class="edge">
<title>message&#45;&gt;posXDirection</title>
<path fill="none" stroke="black" d="M987.98,-143.59C998.12,-119.18 1016.66,-74.58 1028.58,-45.89"/>
<polygon fill="black" stroke="black" points="1032.04,-47.69 1032.64,-37.11 1025.57,-45 1032.04,-47.69"/>
</g>
<!-- message&#45;&gt;offset -->
<g id="edge47" class="edge">
<title>message&#45;&gt;offset</title>
<path fill="none" stroke="black" d="M1031.48,-162C1033.66,-162 1035.84,-162 1038.01,-162"/>
<polygon fill="black" stroke="black" points="1037.9,-165.5 1047.9,-162 1037.9,-158.5 1037.9,-165.5"/>
</g>
<!-- calcValues -->
<g id="node29" class="node">
<title>calcValues</title>
<polygon fill="ivory" stroke="black" points="1261.75,-252 1167.75,-252 1167.75,-216 1261.75,-216 1261.75,-252"/>
<text text-anchor="middle" x="1214.75" y="-228.95" font-family="Times,serif" font-size="14.00">FR:calcValues</text>
</g>
<!-- calcValues&#45;&gt;flightduration -->
<g id="edge48" class="edge">
<title>calcValues&#45;&gt;flightduration</title>
<path fill="none" stroke="black" d="M1254.96,-215.52C1276.46,-206.17 1303.13,-194.57 1325.93,-184.66"/>
<polygon fill="black" stroke="black" points="1327,-187.58 1334.77,-180.38 1324.21,-181.16 1327,-187.58"/>
</g>
<!-- calcValues&#45;&gt;landingposition -->
<g id="edge49" class="edge">
<title>calcValues&#45;&gt;landingposition</title>
<path fill="none" stroke="black" d="M1215.99,-215.7C1216.52,-208.24 1217.16,-199.32 1217.75,-190.97"/>
<polygon fill="black" stroke="black" points="1221.31,-191.33 1218.53,-181.1 1214.32,-190.83 1221.31,-191.33"/>
</g>
<!-- calcValues&#45;&gt;offset -->
<g id="edge50" class="edge">
<title>calcValues&#45;&gt;offset</title>
<path fill="none" stroke="black" d="M1184.03,-215.52C1168.06,-206.43 1148.36,-195.22 1131.27,-185.49"/>
<polygon fill="black" stroke="black" points="1133.5,-182.16 1123.08,-180.26 1130.04,-188.25 1133.5,-182.16"/>
</g>
<!-- calcValues&#45;&gt;message -->
<g id="edge51" class="edge">
<title>calcValues&#45;&gt;message</title>
<path fill="none" stroke="black" d="M1167.4,-218.83C1131.19,-208 1080.98,-192.98 1041.76,-181.25"/>
<polygon fill="black" stroke="black" points="1042.86,-177.63 1032.27,-178.11 1040.85,-184.33 1042.86,-177.63"/>
</g>
<!-- outputValues -->
<g id="node30" class="node">
<title>outputValues</title>
<polygon fill="ivory" stroke="black" points="1145.12,-252 1038.38,-252 1038.38,-216 1145.12,-216 1145.12,-252"/>
<text text-anchor="middle" x="1091.75" y="-228.95" font-family="Times,serif" font-size="14.00">FR:outputValues</text>
</g>
<!-- outputValues&#45;&gt;flightduration -->
<g id="edge52" class="edge">
<title>outputValues&#45;&gt;flightduration</title>
<path fill="none" stroke="black" d="M1145.5,-219.32C1149.98,-218.19 1154.44,-217.07 1158.75,-216 1203.49,-204.86 1253.47,-192.64 1294.17,-182.74"/>
<polygon fill="black" stroke="black" points="1294.96,-185.91 1303.86,-180.15 1293.31,-179.11 1294.96,-185.91"/>
</g>
<!-- outputValues&#45;&gt;offset -->
<g id="edge53" class="edge">
<title>outputValues&#45;&gt;offset</title>
<path fill="none" stroke="black" d="M1091.75,-215.7C1091.75,-208.24 1091.75,-199.32 1091.75,-190.97"/>
<polygon fill="black" stroke="black" points="1095.25,-191.1 1091.75,-181.1 1088.25,-191.1 1095.25,-191.1"/>
</g>
<!-- outputValues&#45;&gt;message -->
<g id="edge54" class="edge">
<title>outputValues&#45;&gt;message</title>
<path fill="none" stroke="black" d="M1064.03,-215.52C1049.88,-206.6 1032.49,-195.63 1017.27,-186.03"/>
<polygon fill="black" stroke="black" points="1019.45,-182.63 1009.12,-180.26 1015.71,-188.56 1019.45,-182.63"/>
</g>
<!-- inputValues -->
<g id="node31" class="node">
<title>inputValues</title>
<polygon fill="ivory" stroke="black" points="1379.75,-252 1279.75,-252 1279.75,-216 1379.75,-216 1379.75,-252"/>
<text text-anchor="middle" x="1329.75" y="-228.95" font-family="Times,serif" font-size="14.00">FR:inputValues</text>
</g>
<!-- verifyInVals -->
<g id="node32" class="node">
<title>verifyInVals</title>
<polygon fill="ivory" stroke="black" points="1501.25,-252 1398.25,-252 1398.25,-216 1501.25,-216 1501.25,-252"/>
<text text-anchor="middle" x="1449.75" y="-228.95" font-family="Times,serif" font-size="14.00">FR:verifyInVals</text>
</g>
<!-- correct -->
<g id="node33" class="node">
<title>correct</title>
<polygon fill="ivory" stroke="black" points="1602.5,-252 1519,-252 1519,-216 1602.5,-216 1602.5,-252"/>
<text text-anchor="middle" x="1560.75" y="-228.95" font-family="Times,serif" font-size="14.00">NFR:correct</text>
</g>
<!-- verifiable -->
<g id="node34" class="node">
<title>verifiable</title>
<polygon fill="ivory" stroke="black" points="1718.62,-252 1620.88,-252 1620.88,-216 1718.62,-216 1718.62,-252"/>
<text text-anchor="middle" x="1669.75" y="-228.95" font-family="Times,serif" font-size="14.00">NFR:verifiable</text>
</g>
<!-- understandable -->
<g id="node35" class="node">
<title>understandable</title>
<polygon fill="ivory" stroke="black" points="1864.62,-252 1736.88,-252 1736.88,-216 1864.62,-216 1864.62,-252"/>
<text text-anchor="middle" x="1800.75" y="-228.95" font-family="Times,serif" font-size="14.00">NFR:understandable</text>
</g>
<!-- reusable -->
<g id="node36" class="node">
<title>reusable</title>
<polygon fill="ivory" stroke="black" points="1973.25,-252 1882.25,-252 1882.25,-216 1973.25,-216 1973.25,-252"/>
<text text-anchor="middle" x="1927.75" y="-228.95" font-family="Times,serif" font-size="14.00">NFR:reusable</text>
</g>
<!-- maintainable -->
<g id="node37" class="node">
<title>maintainable</title>
<polygon fill="ivory" stroke="black" points="2108,-252 1991.5,-252 1991.5,-216 2108,-216 2108,-252"/>
<text text-anchor="middle" x="2049.75" y="-228.95" font-family="Times,serif" font-size="14.00">NFR:maintainable</text>
</g>
<!-- portable -->
<g id="node38" class="node">
<title>portable</title>
<polygon fill="ivory" stroke="black" points="2215.88,-252 2125.62,-252 2125.62,-216 2215.88,-216 2215.88,-252"/>
<text text-anchor="middle" x="2170.75" y="-228.95" font-family="Times,serif" font-size="14.00">NFR:portable</text>
</g>
<!-- targetHit -->
<g id="node39" class="node">
<title>targetHit</title>
<polygon fill="#ffb90f" stroke="black" points="2319.25,-252 2234.25,-252 2234.25,-216 2319.25,-216 2319.25,-252"/>
<text text-anchor="middle" x="2276.75" y="-228.95" font-family="Times,serif" font-size="14.00">GS:targetHit</text>
</g>
</g>
</svg>
