<?xml version="1.0" encoding="UTF-8" standalone="no"?>
<!DOCTYPE svg PUBLIC "-//W3C//DTD SVG 1.1//EN"
 "http://www.w3.org/Graphics/SVG/1.1/DTD/svg11.dtd">
<!-- Generated by graphviz version 8.0.5 (20230430.1635)
 -->
<!-- Title: allvsr Pages: 1 -->
<svg width="4063pt" height="116pt"
 viewBox="0.00 0.00 4063.12 116.00" xmlns="http://www.w3.org/2000/svg" xmlns:xlink="http://www.w3.org/1999/xlink">
<g id="graph0" class="graph" transform="scale(1 1) rotate(0) translate(4 112)">
<title>allvsr</title>
<polygon fill="white" stroke="none" points="-4,4 -4,-112 4059.12,-112 4059.12,4 -4,4"/>
<!-- calcValues -->
<g id="node1" class="node">
<title>calcValues</title>
<polygon fill="ivory" stroke="black" points="359.62,-108 265.62,-108 265.62,-72 359.62,-72 359.62,-108"/>
<text text-anchor="middle" x="312.62" y="-84.95" font-family="Times,serif" font-size="14.00">FR:calcValues</text>
</g>
<!-- flightduration -->
<g id="node2" class="node">
<title>flightduration</title>
<polygon fill="#fff68f" stroke="black" points="141.25,-36 0,-36 0,0 141.25,0 141.25,-36"/>
<text text-anchor="middle" x="70.62" y="-12.95" font-family="Times,serif" font-size="14.00">IM:calOfLandingTime</text>
</g>
<!-- calcValues&#45;&gt;flightduration -->
<g id="edge1" class="edge">
<title>calcValues&#45;&gt;flightduration</title>
<path fill="none" stroke="black" d="M265.29,-74.57C262.36,-73.69 259.45,-72.83 256.62,-72 219.26,-61.01 177.57,-49.09 143.14,-39.35"/>
<polygon fill="black" stroke="black" points="144.28,-35.75 133.7,-36.4 142.37,-42.49 144.28,-35.75"/>
</g>
<!-- landingposition -->
<g id="node3" class="node">
<title>landingposition</title>
<polygon fill="#fff68f" stroke="black" points="515.88,-36 381.38,-36 381.38,0 515.88,0 515.88,-36"/>
<text text-anchor="middle" x="448.62" y="-12.95" font-family="Times,serif" font-size="14.00">IM:calOfLandingDist</text>
</g>
<!-- calcValues&#45;&gt;landingposition -->
<g id="edge2" class="edge">
<title>calcValues&#45;&gt;landingposition</title>
<path fill="none" stroke="black" d="M346.59,-71.52C364.41,-62.34 386.44,-51.01 405.46,-41.22"/>
<polygon fill="black" stroke="black" points="406.8,-43.95 414.09,-36.26 403.6,-37.73 406.8,-43.95"/>
</g>
<!-- offset -->
<g id="node4" class="node">
<title>offset</title>
<polygon fill="#fff68f" stroke="black" points="244.12,-36 159.12,-36 159.12,0 244.12,0 244.12,-36"/>
<text text-anchor="middle" x="201.62" y="-12.95" font-family="Times,serif" font-size="14.00">IM:offsetIM</text>
</g>
<!-- calcValues&#45;&gt;offset -->
<g id="edge3" class="edge">
<title>calcValues&#45;&gt;offset</title>
<path fill="none" stroke="black" d="M284.9,-71.52C270.76,-62.6 253.37,-51.63 238.15,-42.03"/>
<polygon fill="black" stroke="black" points="240.32,-38.63 230,-36.26 236.59,-44.56 240.32,-38.63"/>
</g>
<!-- message -->
<g id="node5" class="node">
<title>message</title>
<polygon fill="#fff68f" stroke="black" points="363,-36 262.25,-36 262.25,0 363,0 363,-36"/>
<text text-anchor="middle" x="312.62" y="-12.95" font-family="Times,serif" font-size="14.00">IM:messageIM</text>
</g>
<!-- calcValues&#45;&gt;message -->
<g id="edge4" class="edge">
<title>calcValues&#45;&gt;message</title>
<path fill="none" stroke="black" d="M312.62,-71.7C312.62,-64.24 312.62,-55.32 312.62,-46.97"/>
<polygon fill="black" stroke="black" points="316.13,-47.1 312.62,-37.1 309.13,-47.1 316.13,-47.1"/>
</g>
<!-- outputValues -->
<g id="node6" class="node">
<title>outputValues</title>
<polygon fill="ivory" stroke="black" points="248,-108 141.25,-108 141.25,-72 248,-72 248,-108"/>
<text text-anchor="middle" x="194.62" y="-84.95" font-family="Times,serif" font-size="14.00">FR:outputValues</text>
</g>
<!-- outputValues&#45;&gt;flightduration -->
<g id="edge5" class="edge">
<title>outputValues&#45;&gt;flightduration</title>
<path fill="none" stroke="black" d="M163.65,-71.52C147.55,-62.43 127.69,-51.22 110.46,-41.49"/>
<polygon fill="black" stroke="black" points="112.63,-38.13 102.2,-36.26 109.19,-44.22 112.63,-38.13"/>
</g>
<!-- outputValues&#45;&gt;offset -->
<g id="edge6" class="edge">
<title>outputValues&#45;&gt;offset</title>
<path fill="none" stroke="black" d="M196.36,-71.7C197.1,-64.24 197.99,-55.32 198.83,-46.97"/>
<polygon fill="black" stroke="black" points="202.4,-47.4 199.91,-37.1 195.44,-46.71 202.4,-47.4"/>
</g>
<!-- outputValues&#45;&gt;message -->
<g id="edge7" class="edge">
<title>outputValues&#45;&gt;message</title>
<path fill="none" stroke="black" d="M224.1,-71.52C239.28,-62.51 257.97,-51.42 274.26,-41.76"/>
<polygon fill="black" stroke="black" points="275.71,-44.37 282.53,-36.26 272.14,-38.35 275.71,-44.37"/>
</g>
<!-- twoDMotion -->
<g id="node7" class="node">
<title>twoDMotion</title>
<polygon fill="mistyrose" stroke="black" points="477.62,-108 377.62,-108 377.62,-72 477.62,-72 477.62,-108"/>
<text text-anchor="middle" x="427.62" y="-84.95" font-family="Times,serif" font-size="14.00">A:twoDMotion</text>
</g>
<!-- cartSyst -->
<g id="node8" class="node">
<title>cartSyst</title>
<polygon fill="mistyrose" stroke="black" points="569.12,-108 496.12,-108 496.12,-72 569.12,-72 569.12,-108"/>
<text text-anchor="middle" x="532.62" y="-84.95" font-family="Times,serif" font-size="14.00">A:cartSyst</text>
</g>
<!-- yAxisGravity -->
<g id="node9" class="node">
<title>yAxisGravity</title>
<polygon fill="mistyrose" stroke="black" points="690.12,-108 587.12,-108 587.12,-72 690.12,-72 690.12,-108"/>
<text text-anchor="middle" x="638.62" y="-84.95" font-family="Times,serif" font-size="14.00">A:yAxisGravity</text>
</g>
<!-- launchOrigin -->
<g id="node10" class="node">
<title>launchOrigin</title>
<polygon fill="mistyrose" stroke="black" points="809,-108 708.25,-108 708.25,-72 809,-72 809,-108"/>
<text text-anchor="middle" x="758.62" y="-84.95" font-family="Times,serif" font-size="14.00">A:launchOrigin</text>
</g>
<!-- targetXAxis -->
<g id="node11" class="node">
<title>targetXAxis</title>
<polygon fill="mistyrose" stroke="black" points="922.38,-108 826.88,-108 826.88,-72 922.38,-72 922.38,-108"/>
<text text-anchor="middle" x="874.62" y="-84.95" font-family="Times,serif" font-size="14.00">A:targetXAxis</text>
</g>
<!-- posXDirection -->
<g id="node12" class="node">
<title>posXDirection</title>
<polygon fill="mistyrose" stroke="black" points="1049.12,-108 940.12,-108 940.12,-72 1049.12,-72 1049.12,-108"/>
<text text-anchor="middle" x="994.62" y="-84.95" font-family="Times,serif" font-size="14.00">A:posXDirection</text>
</g>
<!-- constAccel -->
<g id="node13" class="node">
<title>constAccel</title>
<polygon fill="mistyrose" stroke="black" points="1156.38,-108 1066.88,-108 1066.88,-72 1156.38,-72 1156.38,-108"/>
<text text-anchor="middle" x="1111.62" y="-84.95" font-family="Times,serif" font-size="14.00">A:constAccel</text>
</g>
<!-- accelXZero -->
<g id="node14" class="node">
<title>accelXZero</title>
<polygon fill="mistyrose" stroke="black" points="1266.88,-108 1174.38,-108 1174.38,-72 1266.88,-72 1266.88,-108"/>
<text text-anchor="middle" x="1220.62" y="-84.95" font-family="Times,serif" font-size="14.00">A:accelXZero</text>
</g>
<!-- accelYGravity -->
<g id="node15" class="node">
<title>accelYGravity</title>
<polygon fill="mistyrose" stroke="black" points="1392.75,-108 1284.5,-108 1284.5,-72 1392.75,-72 1392.75,-108"/>
<text text-anchor="middle" x="1338.62" y="-84.95" font-family="Times,serif" font-size="14.00">A:accelYGravity</text>
</g>
<!-- neglectDrag -->
<g id="node16" class="node">
<title>neglectDrag</title>
<polygon fill="mistyrose" stroke="black" points="1506.38,-108 1410.88,-108 1410.88,-72 1506.38,-72 1506.38,-108"/>
<text text-anchor="middle" x="1458.62" y="-84.95" font-family="Times,serif" font-size="14.00">A:neglectDrag</text>
</g>
<!-- pointMass -->
<g id="node17" class="node">
<title>pointMass</title>
<polygon fill="mistyrose" stroke="black" points="1610.88,-108 1524.38,-108 1524.38,-72 1610.88,-72 1610.88,-108"/>
<text text-anchor="middle" x="1567.62" y="-84.95" font-family="Times,serif" font-size="14.00">A:pointMass</text>
</g>
<!-- freeFlight -->
<g id="node18" class="node">
<title>freeFlight</title>
<polygon fill="mistyrose" stroke="black" points="1712,-108 1629.25,-108 1629.25,-72 1712,-72 1712,-108"/>
<text text-anchor="middle" x="1670.62" y="-84.95" font-family="Times,serif" font-size="14.00">A:freeFlight</text>
</g>
<!-- neglectCurv -->
<g id="node19" class="node">
<title>neglectCurv</title>
<polygon fill="mistyrose" stroke="black" points="1825.38,-108 1729.88,-108 1729.88,-72 1825.38,-72 1825.38,-108"/>
<text text-anchor="middle" x="1777.62" y="-84.95" font-family="Times,serif" font-size="14.00">A:neglectCurv</text>
</g>
<!-- timeStartZero -->
<g id="node20" class="node">
<title>timeStartZero</title>
<polygon fill="mistyrose" stroke="black" points="1948.25,-108 1843,-108 1843,-72 1948.25,-72 1948.25,-108"/>
<text text-anchor="middle" x="1895.62" y="-84.95" font-family="Times,serif" font-size="14.00">A:timeStartZero</text>
</g>
<!-- gravAccelValue -->
<g id="node21" class="node">
<title>gravAccelValue</title>
<polygon fill="mistyrose" stroke="black" points="2082.5,-108 1966.75,-108 1966.75,-72 2082.5,-72 2082.5,-108"/>
<text text-anchor="middle" x="2024.62" y="-84.95" font-family="Times,serif" font-size="14.00">A:gravAccelValue</text>
</g>
<!-- speed -->
<g id="node22" class="node">
<title>speed</title>
<polygon fill="#bbffff" stroke="black" points="2184.38,-108 2100.88,-108 2100.88,-72 2184.38,-72 2184.38,-108"/>
<text text-anchor="middle" x="2142.62" y="-84.95" font-family="Times,serif" font-size="14.00">DD:vecMag</text>
</g>
<!-- ixVel -->
<g id="node23" class="node">
<title>ixVel</title>
<polygon fill="#bbffff" stroke="black" points="2286.75,-108 2202.5,-108 2202.5,-72 2286.75,-72 2286.75,-108"/>
<text text-anchor="middle" x="2244.62" y="-84.95" font-family="Times,serif" font-size="14.00">DD:speedIX</text>
</g>
<!-- iyVel -->
<g id="node24" class="node">
<title>iyVel</title>
<polygon fill="#bbffff" stroke="black" points="2388.75,-108 2304.5,-108 2304.5,-72 2388.75,-72 2388.75,-108"/>
<text text-anchor="middle" x="2346.62" y="-84.95" font-family="Times,serif" font-size="14.00">DD:speedIY</text>
</g>
<!-- accelerationTM -->
<g id="node25" class="node">
<title>accelerationTM</title>
<polygon fill="pink" stroke="black" points="2512.62,-108 2406.62,-108 2406.62,-72 2512.62,-72 2512.62,-108"/>
<text text-anchor="middle" x="2459.62" y="-84.95" font-family="Times,serif" font-size="14.00">TM:acceleration</text>
</g>
<!-- velocityTM -->
<g id="node26" class="node">
<title>velocityTM</title>
<polygon fill="pink" stroke="black" points="2614.75,-108 2530.5,-108 2530.5,-72 2614.75,-72 2614.75,-108"/>
<text text-anchor="middle" x="2572.62" y="-84.95" font-family="Times,serif" font-size="14.00">TM:velocity</text>
</g>
<!-- projSpeed -->
<g id="node27" class="node">
<title>projSpeed</title>
<polygon fill="palegreen" stroke="black" points="2710.38,-108 2632.88,-108 2632.88,-72 2710.38,-72 2710.38,-108"/>
<text text-anchor="middle" x="2671.62" y="-84.95" font-family="Times,serif" font-size="14.00">GD:rectVel</text>
</g>
<!-- projPos -->
<g id="node28" class="node">
<title>projPos</title>
<polygon fill="palegreen" stroke="black" points="2807.12,-108 2728.12,-108 2728.12,-72 2807.12,-72 2807.12,-108"/>
<text text-anchor="middle" x="2767.62" y="-84.95" font-family="Times,serif" font-size="14.00">GD:rectPos</text>
</g>
<!-- velocity -->
<g id="node29" class="node">
<title>velocity</title>
<polygon fill="palegreen" stroke="black" points="2901.62,-108 2825.62,-108 2825.62,-72 2901.62,-72 2901.62,-108"/>
<text text-anchor="middle" x="2863.62" y="-84.95" font-family="Times,serif" font-size="14.00">GD:velVec</text>
</g>
<!-- position -->
<g id="node30" class="node">
<title>position</title>
<polygon fill="palegreen" stroke="black" points="2997.75,-108 2919.5,-108 2919.5,-72 2997.75,-72 2997.75,-108"/>
<text text-anchor="middle" x="2958.62" y="-84.95" font-family="Times,serif" font-size="14.00">GD:posVec</text>
</g>
<!-- inputValues -->
<g id="node31" class="node">
<title>inputValues</title>
<polygon fill="ivory" stroke="black" points="3115.62,-108 3015.62,-108 3015.62,-72 3115.62,-72 3115.62,-108"/>
<text text-anchor="middle" x="3065.62" y="-84.95" font-family="Times,serif" font-size="14.00">FR:inputValues</text>
</g>
<!-- verifyInVals -->
<g id="node32" class="node">
<title>verifyInVals</title>
<polygon fill="ivory" stroke="black" points="3237.12,-108 3134.12,-108 3134.12,-72 3237.12,-72 3237.12,-108"/>
<text text-anchor="middle" x="3185.62" y="-84.95" font-family="Times,serif" font-size="14.00">FR:verifyInVals</text>
</g>
<!-- correct -->
<g id="node33" class="node">
<title>correct</title>
<polygon fill="ivory" stroke="black" points="3338.38,-108 3254.88,-108 3254.88,-72 3338.38,-72 3338.38,-108"/>
<text text-anchor="middle" x="3296.62" y="-84.95" font-family="Times,serif" font-size="14.00">NFR:correct</text>
</g>
<!-- verifiable -->
<g id="node34" class="node">
<title>verifiable</title>
<polygon fill="ivory" stroke="black" points="3454.5,-108 3356.75,-108 3356.75,-72 3454.5,-72 3454.5,-108"/>
<text text-anchor="middle" x="3405.62" y="-84.95" font-family="Times,serif" font-size="14.00">NFR:verifiable</text>
</g>
<!-- understandable -->
<g id="node35" class="node">
<title>understandable</title>
<polygon fill="ivory" stroke="black" points="3600.5,-108 3472.75,-108 3472.75,-72 3600.5,-72 3600.5,-108"/>
<text text-anchor="middle" x="3536.62" y="-84.95" font-family="Times,serif" font-size="14.00">NFR:understandable</text>
</g>
<!-- reusable -->
<g id="node36" class="node">
<title>reusable</title>
<polygon fill="ivory" stroke="black" points="3709.12,-108 3618.12,-108 3618.12,-72 3709.12,-72 3709.12,-108"/>
<text text-anchor="middle" x="3663.62" y="-84.95" font-family="Times,serif" font-size="14.00">NFR:reusable</text>
</g>
<!-- maintainable -->
<g id="node37" class="node">
<title>maintainable</title>
<polygon fill="ivory" stroke="black" points="3843.88,-108 3727.38,-108 3727.38,-72 3843.88,-72 3843.88,-108"/>
<text text-anchor="middle" x="3785.62" y="-84.95" font-family="Times,serif" font-size="14.00">NFR:maintainable</text>
</g>
<!-- portable -->
<g id="node38" class="node">
<title>portable</title>
<polygon fill="ivory" stroke="black" points="3951.75,-108 3861.5,-108 3861.5,-72 3951.75,-72 3951.75,-108"/>
<text text-anchor="middle" x="3906.62" y="-84.95" font-family="Times,serif" font-size="14.00">NFR:portable</text>
</g>
<!-- targetHit -->
<g id="node39" class="node">
<title>targetHit</title>
<polygon fill="#ffb90f" stroke="black" points="4055.12,-108 3970.12,-108 3970.12,-72 4055.12,-72 4055.12,-108"/>
<text text-anchor="middle" x="4012.62" y="-84.95" font-family="Times,serif" font-size="14.00">GS:targetHit</text>
</g>
</g>
</svg>
