<?xml version="1.0" encoding="UTF-8" standalone="no"?>
<!DOCTYPE svg PUBLIC "-//W3C//DTD SVG 1.1//EN"
 "http://www.w3.org/Graphics/SVG/1.1/DTD/svg11.dtd">
<!-- Generated by graphviz version 8.0.5 (20230430.1635)
 -->
<!-- Title: avsall Pages: 1 -->
<svg width="3160pt" height="116pt"
 viewBox="0.00 0.00 3160.38 116.00" xmlns="http://www.w3.org/2000/svg" xmlns:xlink="http://www.w3.org/1999/xlink">
<g id="graph0" class="graph" transform="scale(1 1) rotate(0) translate(4 112)">
<title>avsall</title>
<polygon fill="white" stroke="none" points="-4,4 -4,-112 3156.38,-112 3156.38,4 -4,4"/>
<!-- projSpeed -->
<g id="node1" class="node">
<title>projSpeed</title>
<polygon fill="palegreen" stroke="black" points="87,-108 9.5,-108 9.5,-72 87,-72 87,-108"/>
<text text-anchor="middle" x="48.25" y="-84.95" font-family="Times,serif" font-size="14.00">GD:rectVel</text>
</g>
<!-- pointMass -->
<g id="node2" class="node">
<title>pointMass</title>
<polygon fill="mistyrose" stroke="black" points="86.5,-36 0,-36 0,0 86.5,0 86.5,-36"/>
<text text-anchor="middle" x="43.25" y="-12.95" font-family="Times,serif" font-size="14.00">A:pointMass</text>
</g>
<!-- projSpeed&#45;&gt;pointMass -->
<g id="edge1" class="edge">
<title>projSpeed&#45;&gt;pointMass</title>
<path fill="none" stroke="black" d="M47.01,-71.7C46.48,-64.24 45.84,-55.32 45.25,-46.97"/>
<polygon fill="black" stroke="black" points="48.68,-46.83 44.47,-37.1 41.69,-47.33 48.68,-46.83"/>
</g>
<!-- timeStartZero -->
<g id="node3" class="node">
<title>timeStartZero</title>
<polygon fill="mistyrose" stroke="black" points="209.88,-36 104.62,-36 104.62,0 209.88,0 209.88,-36"/>
<text text-anchor="middle" x="157.25" y="-12.95" font-family="Times,serif" font-size="14.00">A:timeStartZero</text>
</g>
<!-- projSpeed&#45;&gt;timeStartZero -->
<g id="edge2" class="edge">
<title>projSpeed&#45;&gt;timeStartZero</title>
<path fill="none" stroke="black" d="M75.47,-71.52C89.36,-62.6 106.44,-51.63 121.39,-42.03"/>
<polygon fill="black" stroke="black" points="122.85,-44.61 129.37,-36.26 119.07,-38.72 122.85,-44.61"/>
</g>
<!-- projPos -->
<g id="node4" class="node">
<title>projPos</title>
<polygon fill="palegreen" stroke="black" points="187.75,-108 108.75,-108 108.75,-72 187.75,-72 187.75,-108"/>
<text text-anchor="middle" x="148.25" y="-84.95" font-family="Times,serif" font-size="14.00">GD:rectPos</text>
</g>
<!-- projPos&#45;&gt;pointMass -->
<g id="edge3" class="edge">
<title>projPos&#45;&gt;pointMass</title>
<path fill="none" stroke="black" d="M122.02,-71.52C108.77,-62.68 92.51,-51.84 78.2,-42.3"/>
<polygon fill="black" stroke="black" points="80.4,-38.9 70.14,-36.26 76.52,-44.72 80.4,-38.9"/>
</g>
<!-- projPos&#45;&gt;timeStartZero -->
<g id="edge4" class="edge">
<title>projPos&#45;&gt;timeStartZero</title>
<path fill="none" stroke="black" d="M150.47,-71.7C151.43,-64.24 152.58,-55.32 153.65,-46.97"/>
<polygon fill="black" stroke="black" points="157.25,-47.47 155.05,-37.1 150.3,-46.58 157.25,-47.47"/>
</g>
<!-- velocity -->
<g id="node5" class="node">
<title>velocity</title>
<polygon fill="palegreen" stroke="black" points="318.25,-108 242.25,-108 242.25,-72 318.25,-72 318.25,-108"/>
<text text-anchor="middle" x="280.25" y="-84.95" font-family="Times,serif" font-size="14.00">GD:velVec</text>
</g>
<!-- velocity&#45;&gt;timeStartZero -->
<g id="edge8" class="edge">
<title>velocity&#45;&gt;timeStartZero</title>
<path fill="none" stroke="black" d="M249.53,-71.52C233.56,-62.43 213.86,-51.22 196.77,-41.49"/>
<polygon fill="black" stroke="black" points="199,-38.16 188.58,-36.26 195.54,-44.25 199,-38.16"/>
</g>
<!-- twoDMotion -->
<g id="node6" class="node">
<title>twoDMotion</title>
<polygon fill="mistyrose" stroke="black" points="328.25,-36 228.25,-36 228.25,0 328.25,0 328.25,-36"/>
<text text-anchor="middle" x="278.25" y="-12.95" font-family="Times,serif" font-size="14.00">A:twoDMotion</text>
</g>
<!-- velocity&#45;&gt;twoDMotion -->
<g id="edge5" class="edge">
<title>velocity&#45;&gt;twoDMotion</title>
<path fill="none" stroke="black" d="M279.76,-71.7C279.54,-64.24 279.29,-55.32 279.05,-46.97"/>
<polygon fill="black" stroke="black" points="282.52,-47 278.74,-37.1 275.53,-47.2 282.52,-47"/>
</g>
<!-- cartSyst -->
<g id="node7" class="node">
<title>cartSyst</title>
<polygon fill="mistyrose" stroke="black" points="419.75,-36 346.75,-36 346.75,0 419.75,0 419.75,-36"/>
<text text-anchor="middle" x="383.25" y="-12.95" font-family="Times,serif" font-size="14.00">A:cartSyst</text>
</g>
<!-- velocity&#45;&gt;cartSyst -->
<g id="edge6" class="edge">
<title>velocity&#45;&gt;cartSyst</title>
<path fill="none" stroke="black" d="M305.98,-71.52C318.98,-62.68 334.93,-51.84 348.96,-42.3"/>
<polygon fill="black" stroke="black" points="350.55,-44.78 356.85,-36.26 346.61,-38.99 350.55,-44.78"/>
</g>
<!-- constAccel -->
<g id="node8" class="node">
<title>constAccel</title>
<polygon fill="mistyrose" stroke="black" points="527,-36 437.5,-36 437.5,0 527,0 527,-36"/>
<text text-anchor="middle" x="482.25" y="-12.95" font-family="Times,serif" font-size="14.00">A:constAccel</text>
</g>
<!-- velocity&#45;&gt;constAccel -->
<g id="edge7" class="edge">
<title>velocity&#45;&gt;constAccel</title>
<path fill="none" stroke="black" d="M318.72,-75.67C349.32,-65.06 392.55,-50.08 426.88,-38.19"/>
<polygon fill="black" stroke="black" points="427.92,-41.18 436.22,-34.6 425.63,-34.57 427.92,-41.18"/>
</g>
<!-- position -->
<g id="node9" class="node">
<title>position</title>
<polygon fill="palegreen" stroke="black" points="417.38,-108 339.12,-108 339.12,-72 417.38,-72 417.38,-108"/>
<text text-anchor="middle" x="378.25" y="-84.95" font-family="Times,serif" font-size="14.00">GD:posVec</text>
</g>
<!-- position&#45;&gt;timeStartZero -->
<g id="edge12" class="edge">
<title>position&#45;&gt;timeStartZero</title>
<path fill="none" stroke="black" d="M338.74,-75.74C334.86,-74.47 330.98,-73.2 327.25,-72 291.94,-60.61 252.37,-48.25 220.31,-38.34"/>
<polygon fill="black" stroke="black" points="221.76,-34.81 211.17,-35.21 219.69,-41.5 221.76,-34.81"/>
</g>
<!-- position&#45;&gt;twoDMotion -->
<g id="edge9" class="edge">
<title>position&#45;&gt;twoDMotion</title>
<path fill="none" stroke="black" d="M353.27,-71.52C340.65,-62.68 325.16,-51.84 311.54,-42.3"/>
<polygon fill="black" stroke="black" points="314.11,-39.13 303.91,-36.26 310.09,-44.86 314.11,-39.13"/>
</g>
<!-- position&#45;&gt;cartSyst -->
<g id="edge10" class="edge">
<title>position&#45;&gt;cartSyst</title>
<path fill="none" stroke="black" d="M379.49,-71.7C380.02,-64.24 380.66,-55.32 381.25,-46.97"/>
<polygon fill="black" stroke="black" points="384.81,-47.33 382.03,-37.1 377.82,-46.83 384.81,-47.33"/>
</g>
<!-- position&#45;&gt;constAccel -->
<g id="edge11" class="edge">
<title>position&#45;&gt;constAccel</title>
<path fill="none" stroke="black" d="M404.23,-71.52C417.35,-62.68 433.46,-51.84 447.63,-42.3"/>
<polygon fill="black" stroke="black" points="449.26,-44.75 455.61,-36.26 445.36,-38.94 449.26,-44.75"/>
</g>
<!-- flightduration -->
<g id="node10" class="node">
<title>flightduration</title>
<polygon fill="#fff68f" stroke="black" points="907.88,-108 766.62,-108 766.62,-72 907.88,-72 907.88,-108"/>
<text text-anchor="middle" x="837.25" y="-84.95" font-family="Times,serif" font-size="14.00">IM:calOfLandingTime</text>
</g>
<!-- flightduration&#45;&gt;timeStartZero -->
<g id="edge18" class="edge">
<title>flightduration&#45;&gt;timeStartZero</title>
<path fill="none" stroke="black" d="M766.27,-87.11C652.75,-83.16 423.38,-71.41 220.75,-36.07"/>
<polygon fill="black" stroke="black" points="221.66,-32.5 211.2,-34.2 220.44,-39.39 221.66,-32.5"/>
</g>
<!-- yAxisGravity -->
<g id="node11" class="node">
<title>yAxisGravity</title>
<polygon fill="mistyrose" stroke="black" points="888.75,-36 785.75,-36 785.75,0 888.75,0 888.75,-36"/>
<text text-anchor="middle" x="837.25" y="-12.95" font-family="Times,serif" font-size="14.00">A:yAxisGravity</text>
</g>
<!-- flightduration&#45;&gt;yAxisGravity -->
<g id="edge13" class="edge">
<title>flightduration&#45;&gt;yAxisGravity</title>
<path fill="none" stroke="black" d="M837.25,-71.7C837.25,-64.24 837.25,-55.32 837.25,-46.97"/>
<polygon fill="black" stroke="black" points="840.75,-47.1 837.25,-37.1 833.75,-47.1 840.75,-47.1"/>
</g>
<!-- launchOrigin -->
<g id="node12" class="node">
<title>launchOrigin</title>
<polygon fill="mistyrose" stroke="black" points="1007.62,-36 906.88,-36 906.88,0 1007.62,0 1007.62,-36"/>
<text text-anchor="middle" x="957.25" y="-12.95" font-family="Times,serif" font-size="14.00">A:launchOrigin</text>
</g>
<!-- flightduration&#45;&gt;launchOrigin -->
<g id="edge14" class="edge">
<title>flightduration&#45;&gt;launchOrigin</title>
<path fill="none" stroke="black" d="M867.22,-71.52C882.66,-62.51 901.67,-51.42 918.23,-41.76"/>
<polygon fill="black" stroke="black" points="919.79,-44.32 926.66,-36.26 916.26,-38.28 919.79,-44.32"/>
</g>
<!-- targetXAxis -->
<g id="node13" class="node">
<title>targetXAxis</title>
<polygon fill="mistyrose" stroke="black" points="641,-36 545.5,-36 545.5,0 641,0 641,-36"/>
<text text-anchor="middle" x="593.25" y="-12.95" font-family="Times,serif" font-size="14.00">A:targetXAxis</text>
</g>
<!-- flightduration&#45;&gt;targetXAxis -->
<g id="edge15" class="edge">
<title>flightduration&#45;&gt;targetXAxis</title>
<path fill="none" stroke="black" d="M774.86,-71.55C741.03,-62.03 698.25,-49.91 651.99,-36.49"/>
<polygon fill="black" stroke="black" points="653.02,-32.85 642.44,-33.42 651.06,-39.57 653.02,-32.85"/>
</g>
<!-- posXDirection -->
<g id="node14" class="node">
<title>posXDirection</title>
<polygon fill="mistyrose" stroke="black" points="1378.75,-36 1269.75,-36 1269.75,0 1378.75,0 1378.75,-36"/>
<text text-anchor="middle" x="1324.25" y="-12.95" font-family="Times,serif" font-size="14.00">A:posXDirection</text>
</g>
<!-- flightduration&#45;&gt;posXDirection -->
<g id="edge16" class="edge">
<title>flightduration&#45;&gt;posXDirection</title>
<path fill="none" stroke="black" d="M907.97,-81.31C1005.68,-70.5 1178.12,-50.68 1258.79,-36.07"/>
<polygon fill="black" stroke="black" points="1259.37,-39.34 1268.55,-34.05 1258.08,-32.46 1259.37,-39.34"/>
</g>
<!-- accelYGravity -->
<g id="node15" class="node">
<title>accelYGravity</title>
<polygon fill="mistyrose" stroke="black" points="767.38,-36 659.12,-36 659.12,0 767.38,0 767.38,-36"/>
<text text-anchor="middle" x="713.25" y="-12.95" font-family="Times,serif" font-size="14.00">A:accelYGravity</text>
</g>
<!-- flightduration&#45;&gt;accelYGravity -->
<g id="edge17" class="edge">
<title>flightduration&#45;&gt;accelYGravity</title>
<path fill="none" stroke="black" d="M806.28,-71.52C790.18,-62.43 770.32,-51.22 753.09,-41.49"/>
<polygon fill="black" stroke="black" points="755.25,-38.13 744.83,-36.26 751.81,-44.22 755.25,-38.13"/>
</g>
<!-- gravAccelValue -->
<g id="node16" class="node">
<title>gravAccelValue</title>
<polygon fill="mistyrose" stroke="black" points="1141.12,-36 1025.38,-36 1025.38,0 1141.12,0 1141.12,-36"/>
<text text-anchor="middle" x="1083.25" y="-12.95" font-family="Times,serif" font-size="14.00">A:gravAccelValue</text>
</g>
<!-- flightduration&#45;&gt;gravAccelValue -->
<g id="edge19" class="edge">
<title>flightduration&#45;&gt;gravAccelValue</title>
<path fill="none" stroke="black" d="M898.69,-71.52C933.92,-61.49 978.23,-48.88 1014.6,-38.53"/>
<polygon fill="black" stroke="black" points="1015.47,-41.64 1024.13,-35.54 1013.55,-34.91 1015.47,-41.64"/>
</g>
<!-- landingposition -->
<g id="node17" class="node">
<title>landingposition</title>
<polygon fill="#fff68f" stroke="black" points="1150.5,-108 1016,-108 1016,-72 1150.5,-72 1150.5,-108"/>
<text text-anchor="middle" x="1083.25" y="-84.95" font-family="Times,serif" font-size="14.00">IM:calOfLandingDist</text>
</g>
<!-- landingposition&#45;&gt;yAxisGravity -->
<g id="edge20" class="edge">
<title>landingposition&#45;&gt;yAxisGravity</title>
<path fill="none" stroke="black" d="M1021.81,-71.52C984.47,-60.89 936.95,-47.37 899.47,-36.71"/>
<polygon fill="black" stroke="black" points="900.76,-33.15 890.19,-33.78 898.85,-39.88 900.76,-33.15"/>
</g>
<!-- landingposition&#45;&gt;launchOrigin -->
<g id="edge21" class="edge">
<title>landingposition&#45;&gt;launchOrigin</title>
<path fill="none" stroke="black" d="M1051.78,-71.52C1035.42,-62.43 1015.24,-51.22 997.73,-41.49"/>
<polygon fill="black" stroke="black" points="999.76,-38.06 989.32,-36.26 996.36,-44.18 999.76,-38.06"/>
</g>
<!-- landingposition&#45;&gt;posXDirection -->
<g id="edge22" class="edge">
<title>landingposition&#45;&gt;posXDirection</title>
<path fill="none" stroke="black" d="M1143.44,-71.52C1178.59,-61.31 1222.97,-48.42 1258.96,-37.96"/>
<polygon fill="black" stroke="black" points="1259.73,-41.1 1268.35,-34.95 1257.77,-34.37 1259.73,-41.1"/>
</g>
<!-- landingposition&#45;&gt;gravAccelValue -->
<g id="edge24" class="edge">
<title>landingposition&#45;&gt;gravAccelValue</title>
<path fill="none" stroke="black" d="M1083.25,-71.7C1083.25,-64.24 1083.25,-55.32 1083.25,-46.97"/>
<polygon fill="black" stroke="black" points="1086.75,-47.1 1083.25,-37.1 1079.75,-47.1 1086.75,-47.1"/>
</g>
<!-- accelXZero -->
<g id="node18" class="node">
<title>accelXZero</title>
<polygon fill="mistyrose" stroke="black" points="1251.5,-36 1159,-36 1159,0 1251.5,0 1251.5,-36"/>
<text text-anchor="middle" x="1205.25" y="-12.95" font-family="Times,serif" font-size="14.00">A:accelXZero</text>
</g>
<!-- landingposition&#45;&gt;accelXZero -->
<g id="edge23" class="edge">
<title>landingposition&#45;&gt;accelXZero</title>
<path fill="none" stroke="black" d="M1113.72,-71.52C1129.56,-62.43 1149.1,-51.22 1166.06,-41.49"/>
<polygon fill="black" stroke="black" points="1167.24,-44.27 1174.17,-36.26 1163.75,-38.2 1167.24,-44.27"/>
</g>
<!-- offset -->
<g id="node19" class="node">
<title>offset</title>
<polygon fill="#fff68f" stroke="black" points="1310.75,-108 1225.75,-108 1225.75,-72 1310.75,-72 1310.75,-108"/>
<text text-anchor="middle" x="1268.25" y="-84.95" font-family="Times,serif" font-size="14.00">IM:offsetIM</text>
</g>
<!-- offset&#45;&gt;posXDirection -->
<g id="edge25" class="edge">
<title>offset&#45;&gt;posXDirection</title>
<path fill="none" stroke="black" d="M1282.09,-71.7C1288.67,-63.47 1296.66,-53.48 1303.91,-44.42"/>
<polygon fill="black" stroke="black" points="1307.05,-47.1 1310.57,-37.1 1301.59,-42.73 1307.05,-47.1"/>
</g>
<!-- message -->
<g id="node20" class="node">
<title>message</title>
<polygon fill="#fff68f" stroke="black" points="1429.62,-108 1328.88,-108 1328.88,-72 1429.62,-72 1429.62,-108"/>
<text text-anchor="middle" x="1379.25" y="-84.95" font-family="Times,serif" font-size="14.00">IM:messageIM</text>
</g>
<!-- message&#45;&gt;posXDirection -->
<g id="edge26" class="edge">
<title>message&#45;&gt;posXDirection</title>
<path fill="none" stroke="black" d="M1365.65,-71.7C1359.26,-63.56 1351.51,-53.69 1344.44,-44.7"/>
<polygon fill="black" stroke="black" points="1346.62,-42.81 1337.69,-37.1 1341.12,-47.13 1346.62,-42.81"/>
</g>
<!-- neglectDrag -->
<g id="node21" class="node">
<title>neglectDrag</title>
<polygon fill="mistyrose" stroke="black" points="1492,-36 1396.5,-36 1396.5,0 1492,0 1492,-36"/>
<text text-anchor="middle" x="1444.25" y="-12.95" font-family="Times,serif" font-size="14.00">A:neglectDrag</text>
</g>
<!-- freeFlight -->
<g id="node22" class="node">
<title>freeFlight</title>
<polygon fill="mistyrose" stroke="black" points="1592.62,-36 1509.88,-36 1509.88,0 1592.62,0 1592.62,-36"/>
<text text-anchor="middle" x="1551.25" y="-12.95" font-family="Times,serif" font-size="14.00">A:freeFlight</text>
</g>
<!-- neglectCurv -->
<g id="node23" class="node">
<title>neglectCurv</title>
<polygon fill="mistyrose" stroke="black" points="1706,-36 1610.5,-36 1610.5,0 1706,0 1706,-36"/>
<text text-anchor="middle" x="1658.25" y="-12.95" font-family="Times,serif" font-size="14.00">A:neglectCurv</text>
</g>
<!-- speed -->
<g id="node24" class="node">
<title>speed</title>
<polygon fill="#bbffff" stroke="black" points="1531,-108 1447.5,-108 1447.5,-72 1531,-72 1531,-108"/>
<text text-anchor="middle" x="1489.25" y="-84.95" font-family="Times,serif" font-size="14.00">DD:vecMag</text>
</g>
<!-- ixVel -->
<g id="node25" class="node">
<title>ixVel</title>
<polygon fill="#bbffff" stroke="black" points="1633.38,-108 1549.12,-108 1549.12,-72 1633.38,-72 1633.38,-108"/>
<text text-anchor="middle" x="1591.25" y="-84.95" font-family="Times,serif" font-size="14.00">DD:speedIX</text>
</g>
<!-- iyVel -->
<g id="node26" class="node">
<title>iyVel</title>
<polygon fill="#bbffff" stroke="black" points="1735.38,-108 1651.12,-108 1651.12,-72 1735.38,-72 1735.38,-108"/>
<text text-anchor="middle" x="1693.25" y="-84.95" font-family="Times,serif" font-size="14.00">DD:speedIY</text>
</g>
<!-- accelerationTM -->
<g id="node27" class="node">
<title>accelerationTM</title>
<polygon fill="pink" stroke="black" points="1859.25,-108 1753.25,-108 1753.25,-72 1859.25,-72 1859.25,-108"/>
<text text-anchor="middle" x="1806.25" y="-84.95" font-family="Times,serif" font-size="14.00">TM:acceleration</text>
</g>
<!-- velocityTM -->
<g id="node28" class="node">
<title>velocityTM</title>
<polygon fill="pink" stroke="black" points="1961.38,-108 1877.12,-108 1877.12,-72 1961.38,-72 1961.38,-108"/>
<text text-anchor="middle" x="1919.25" y="-84.95" font-family="Times,serif" font-size="14.00">TM:velocity</text>
</g>
<!-- inputValues -->
<g id="node29" class="node">
<title>inputValues</title>
<polygon fill="ivory" stroke="black" points="2079.25,-108 1979.25,-108 1979.25,-72 2079.25,-72 2079.25,-108"/>
<text text-anchor="middle" x="2029.25" y="-84.95" font-family="Times,serif" font-size="14.00">FR:inputValues</text>
</g>
<!-- verifyInVals -->
<g id="node30" class="node">
<title>verifyInVals</title>
<polygon fill="ivory" stroke="black" points="2200.75,-108 2097.75,-108 2097.75,-72 2200.75,-72 2200.75,-108"/>
<text text-anchor="middle" x="2149.25" y="-84.95" font-family="Times,serif" font-size="14.00">FR:verifyInVals</text>
</g>
<!-- calcValues -->
<g id="node31" class="node">
<title>calcValues</title>
<polygon fill="ivory" stroke="black" points="2313.25,-108 2219.25,-108 2219.25,-72 2313.25,-72 2313.25,-108"/>
<text text-anchor="middle" x="2266.25" y="-84.95" font-family="Times,serif" font-size="14.00">FR:calcValues</text>
</g>
<!-- outputValues -->
<g id="node32" class="node">
<title>outputValues</title>
<polygon fill="ivory" stroke="black" points="2437.62,-108 2330.88,-108 2330.88,-72 2437.62,-72 2437.62,-108"/>
<text text-anchor="middle" x="2384.25" y="-84.95" font-family="Times,serif" font-size="14.00">FR:outputValues</text>
</g>
<!-- correct -->
<g id="node33" class="node">
<title>correct</title>
<polygon fill="ivory" stroke="black" points="2539,-108 2455.5,-108 2455.5,-72 2539,-72 2539,-108"/>
<text text-anchor="middle" x="2497.25" y="-84.95" font-family="Times,serif" font-size="14.00">NFR:correct</text>
</g>
<!-- verifiable -->
<g id="node34" class="node">
<title>verifiable</title>
<polygon fill="ivory" stroke="black" points="2655.12,-108 2557.38,-108 2557.38,-72 2655.12,-72 2655.12,-108"/>
<text text-anchor="middle" x="2606.25" y="-84.95" font-family="Times,serif" font-size="14.00">NFR:verifiable</text>
</g>
<!-- understandable -->
<g id="node35" class="node">
<title>understandable</title>
<polygon fill="ivory" stroke="black" points="2801.12,-108 2673.38,-108 2673.38,-72 2801.12,-72 2801.12,-108"/>
<text text-anchor="middle" x="2737.25" y="-84.95" font-family="Times,serif" font-size="14.00">NFR:understandable</text>
</g>
<!-- reusable -->
<g id="node36" class="node">
<title>reusable</title>
<polygon fill="ivory" stroke="black" points="2909.75,-108 2818.75,-108 2818.75,-72 2909.75,-72 2909.75,-108"/>
<text text-anchor="middle" x="2864.25" y="-84.95" font-family="Times,serif" font-size="14.00">NFR:reusable</text>
</g>
<!-- maintainable -->
<g id="node37" class="node">
<title>maintainable</title>
<polygon fill="ivory" stroke="black" points="3044.5,-108 2928,-108 2928,-72 3044.5,-72 3044.5,-108"/>
<text text-anchor="middle" x="2986.25" y="-84.95" font-family="Times,serif" font-size="14.00">NFR:maintainable</text>
</g>
<!-- portable -->
<g id="node38" class="node">
<title>portable</title>
<polygon fill="ivory" stroke="black" points="3152.38,-108 3062.12,-108 3062.12,-72 3152.38,-72 3152.38,-108"/>
<text text-anchor="middle" x="3107.25" y="-84.95" font-family="Times,serif" font-size="14.00">NFR:portable</text>
</g>
</g>
</svg>
