<?xml version="1.0" encoding="UTF-8" standalone="no"?>
<!DOCTYPE svg PUBLIC "-//W3C//DTD SVG 1.1//EN"
 "http://www.w3.org/Graphics/SVG/1.1/DTD/svg11.dtd">
<!-- Generated by graphviz version 8.0.5 (20230430.1635)
 -->
<!-- Title: avsa Pages: 1 -->
<svg width="1714pt" height="78pt"
 viewBox="0.00 0.00 1714.38 78.04" xmlns="http://www.w3.org/2000/svg" xmlns:xlink="http://www.w3.org/1999/xlink">
<g id="graph0" class="graph" transform="scale(1 1) rotate(0) translate(4 74.04)">
<title>avsa</title>
<polygon fill="white" stroke="none" points="-4,4 -4,-74.04 1710.38,-74.04 1710.38,4 -4,4"/>
<!-- cartSyst -->
<g id="node1" class="node">
<title>cartSyst</title>
<polygon fill="mistyrose" stroke="black" points="73,-36 0,-36 0,0 73,0 73,-36"/>
<text text-anchor="middle" x="36.5" y="-12.95" font-family="Times,serif" font-size="14.00">A:cartSyst</text>
</g>
<!-- neglectCurv -->
<g id="node2" class="node">
<title>neglectCurv</title>
<polygon fill="mistyrose" stroke="black" points="300.25,-36 204.75,-36 204.75,0 300.25,0 300.25,-36"/>
<text text-anchor="middle" x="252.5" y="-12.95" font-family="Times,serif" font-size="14.00">A:neglectCurv</text>
</g>
<!-- cartSyst&#45;&gt;neglectCurv -->
<g id="edge1" class="edge">
<title>cartSyst&#45;&gt;neglectCurv</title>
<path fill="none" stroke="black" d="M57.84,-36.46C67.21,-43.39 78.75,-50.44 90.5,-54 131.34,-66.36 145.16,-64.54 186.5,-54 196.83,-51.37 207.28,-46.75 216.73,-41.69"/>
<polygon fill="black" stroke="black" points="218.2,-44.3 225.16,-36.31 214.74,-38.22 218.2,-44.3"/>
</g>
<!-- targetXAxis -->
<g id="node3" class="node">
<title>targetXAxis</title>
<polygon fill="mistyrose" stroke="black" points="186.25,-36 90.75,-36 90.75,0 186.25,0 186.25,-36"/>
<text text-anchor="middle" x="138.5" y="-12.95" font-family="Times,serif" font-size="14.00">A:targetXAxis</text>
</g>
<!-- targetXAxis&#45;&gt;neglectCurv -->
<g id="edge2" class="edge">
<title>targetXAxis&#45;&gt;neglectCurv</title>
<path fill="none" stroke="black" d="M186.59,-18C188.91,-18 191.22,-18 193.53,-18"/>
<polygon fill="black" stroke="black" points="193.36,-21.5 203.36,-18 193.36,-14.5 193.36,-21.5"/>
</g>
<!-- constAccel -->
<g id="node4" class="node">
<title>constAccel</title>
<polygon fill="mistyrose" stroke="black" points="408.25,-36 318.75,-36 318.75,0 408.25,0 408.25,-36"/>
<text text-anchor="middle" x="363.5" y="-12.95" font-family="Times,serif" font-size="14.00">A:constAccel</text>
</g>
<!-- accelXZero -->
<g id="node5" class="node">
<title>accelXZero</title>
<polygon fill="mistyrose" stroke="black" points="980.75,-36 888.25,-36 888.25,0 980.75,0 980.75,-36"/>
<text text-anchor="middle" x="934.5" y="-12.95" font-family="Times,serif" font-size="14.00">A:accelXZero</text>
</g>
<!-- constAccel&#45;&gt;accelXZero -->
<g id="edge3" class="edge">
<title>constAccel&#45;&gt;accelXZero</title>
<path fill="none" stroke="black" d="M388.83,-36.49C399.84,-43.43 413.23,-50.48 426.5,-54 474.18,-66.66 822.78,-66.5 870.5,-54 880.37,-51.41 890.33,-46.93 899.35,-41.98"/>
<polygon fill="black" stroke="black" points="900.86,-44.56 907.72,-36.5 897.32,-38.52 900.86,-44.56"/>
</g>
<!-- accelYGravity -->
<g id="node6" class="node">
<title>accelYGravity</title>
<polygon fill="mistyrose" stroke="black" points="748.62,-36 640.38,-36 640.38,0 748.62,0 748.62,-36"/>
<text text-anchor="middle" x="694.5" y="-12.95" font-family="Times,serif" font-size="14.00">A:accelYGravity</text>
</g>
<!-- constAccel&#45;&gt;accelYGravity -->
<g id="edge4" class="edge">
<title>constAccel&#45;&gt;accelYGravity</title>
<path fill="none" stroke="black" d="M388.83,-36.49C399.84,-43.43 413.23,-50.48 426.5,-54 510.69,-76.36 537.72,-74.01 622.5,-54 633.84,-51.32 645.43,-46.57 655.9,-41.38"/>
<polygon fill="black" stroke="black" points="657.32,-44.07 664.56,-36.33 654.07,-37.86 657.32,-44.07"/>
</g>
<!-- neglectDrag -->
<g id="node7" class="node">
<title>neglectDrag</title>
<polygon fill="mistyrose" stroke="black" points="622.25,-36 526.75,-36 526.75,0 622.25,0 622.25,-36"/>
<text text-anchor="middle" x="574.5" y="-12.95" font-family="Times,serif" font-size="14.00">A:neglectDrag</text>
</g>
<!-- constAccel&#45;&gt;neglectDrag -->
<g id="edge5" class="edge">
<title>constAccel&#45;&gt;neglectDrag</title>
<path fill="none" stroke="black" d="M388.83,-36.49C399.84,-43.43 413.23,-50.48 426.5,-54 461.72,-63.35 473.19,-63 508.5,-54 518.83,-51.37 529.28,-46.75 538.73,-41.69"/>
<polygon fill="black" stroke="black" points="540.2,-44.3 547.16,-36.31 536.74,-38.22 540.2,-44.3"/>
</g>
<!-- freeFlight -->
<g id="node8" class="node">
<title>freeFlight</title>
<polygon fill="mistyrose" stroke="black" points="508.88,-36 426.12,-36 426.12,0 508.88,0 508.88,-36"/>
<text text-anchor="middle" x="467.5" y="-12.95" font-family="Times,serif" font-size="14.00">A:freeFlight</text>
</g>
<!-- constAccel&#45;&gt;freeFlight -->
<g id="edge6" class="edge">
<title>constAccel&#45;&gt;freeFlight</title>
<path fill="none" stroke="black" d="M408.59,-18C410.78,-18 412.97,-18 415.15,-18"/>
<polygon fill="black" stroke="black" points="415.08,-21.5 425.08,-18 415.08,-14.5 415.08,-21.5"/>
</g>
<!-- yAxisGravity -->
<g id="node9" class="node">
<title>yAxisGravity</title>
<polygon fill="mistyrose" stroke="black" points="870,-36 767,-36 767,0 870,0 870,-36"/>
<text text-anchor="middle" x="818.5" y="-12.95" font-family="Times,serif" font-size="14.00">A:yAxisGravity</text>
</g>
<!-- accelYGravity&#45;&gt;yAxisGravity -->
<g id="edge7" class="edge">
<title>accelYGravity&#45;&gt;yAxisGravity</title>
<path fill="none" stroke="black" d="M748.75,-18C751.09,-18 753.43,-18 755.77,-18"/>
<polygon fill="black" stroke="black" points="755.73,-21.5 765.73,-18 755.73,-14.5 755.73,-21.5"/>
</g>
<!-- twoDMotion -->
<g id="node10" class="node">
<title>twoDMotion</title>
<polygon fill="mistyrose" stroke="black" points="1098.5,-36 998.5,-36 998.5,0 1098.5,0 1098.5,-36"/>
<text text-anchor="middle" x="1048.5" y="-12.95" font-family="Times,serif" font-size="14.00">A:twoDMotion</text>
</g>
<!-- launchOrigin -->
<g id="node11" class="node">
<title>launchOrigin</title>
<polygon fill="mistyrose" stroke="black" points="1216.88,-36 1116.12,-36 1116.12,0 1216.88,0 1216.88,-36"/>
<text text-anchor="middle" x="1166.5" y="-12.95" font-family="Times,serif" font-size="14.00">A:launchOrigin</text>
</g>
<!-- posXDirection -->
<g id="node12" class="node">
<title>posXDirection</title>
<polygon fill="mistyrose" stroke="black" points="1344,-36 1235,-36 1235,0 1344,0 1344,-36"/>
<text text-anchor="middle" x="1289.5" y="-12.95" font-family="Times,serif" font-size="14.00">A:posXDirection</text>
</g>
<!-- pointMass -->
<g id="node13" class="node">
<title>pointMass</title>
<polygon fill="mistyrose" stroke="black" points="1448.75,-36 1362.25,-36 1362.25,0 1448.75,0 1448.75,-36"/>
<text text-anchor="middle" x="1405.5" y="-12.95" font-family="Times,serif" font-size="14.00">A:pointMass</text>
</g>
<!-- timeStartZero -->
<g id="node14" class="node">
<title>timeStartZero</title>
<polygon fill="mistyrose" stroke="black" points="1572.12,-36 1466.88,-36 1466.88,0 1572.12,0 1572.12,-36"/>
<text text-anchor="middle" x="1519.5" y="-12.95" font-family="Times,serif" font-size="14.00">A:timeStartZero</text>
</g>
<!-- gravAccelValue -->
<g id="node15" class="node">
<title>gravAccelValue</title>
<polygon fill="mistyrose" stroke="black" points="1706.38,-36 1590.62,-36 1590.62,0 1706.38,0 1706.38,-36"/>
<text text-anchor="middle" x="1648.5" y="-12.95" font-family="Times,serif" font-size="14.00">A:gravAccelValue</text>
</g>
</g>
</svg>
