<?xml version="1.0" encoding="UTF-8" standalone="no"?>
<!DOCTYPE svg PUBLIC "-//W3C//DTD SVG 1.1//EN"
 "http://www.w3.org/Graphics/SVG/1.1/DTD/svg11.dtd">
<!-- Generated by graphviz version 8.0.5 (20230430.1635)
 -->
<!-- Title: refvsref Pages: 1 -->
<svg width="891pt" height="188pt"
 viewBox="0.00 0.00 891.38 188.00" xmlns="http://www.w3.org/2000/svg" xmlns:xlink="http://www.w3.org/1999/xlink">
<g id="graph0" class="graph" transform="scale(1 1) rotate(0) translate(4 184)">
<title>refvsref</title>
<polygon fill="white" stroke="none" points="-4,4 -4,-184 887.38,-184 887.38,4 -4,4"/>
<!-- ixVel -->
<g id="node1" class="node">
<title>ixVel</title>
<polygon fill="#bbffff" stroke="black" points="281.5,-108 197.25,-108 197.25,-72 281.5,-72 281.5,-108"/>
<text text-anchor="middle" x="239.38" y="-84.95" font-family="Times,serif" font-size="14.00">DD:speedIX</text>
</g>
<!-- speed -->
<g id="node2" class="node">
<title>speed</title>
<polygon fill="#bbffff" stroke="black" points="679.12,-108 595.62,-108 595.62,-72 679.12,-72 679.12,-108"/>
<text text-anchor="middle" x="637.38" y="-84.95" font-family="Times,serif" font-size="14.00">DD:vecMag</text>
</g>
<!-- ixVel&#45;&gt;speed -->
<g id="edge1" class="edge">
<title>ixVel&#45;&gt;speed</title>
<path fill="none" stroke="black" d="M263.38,-108.48C273.84,-115.41 286.61,-122.47 299.38,-126 358.91,-142.49 517.84,-142.49 577.38,-126 586.55,-123.46 595.72,-119.1 604.04,-114.28"/>
<polygon fill="black" stroke="black" points="605.72,-116.73 612.37,-108.48 602.03,-110.79 605.72,-116.73"/>
</g>
<!-- iyVel -->
<g id="node3" class="node">
<title>iyVel</title>
<polygon fill="#bbffff" stroke="black" points="577.5,-108 493.25,-108 493.25,-72 577.5,-72 577.5,-108"/>
<text text-anchor="middle" x="535.38" y="-84.95" font-family="Times,serif" font-size="14.00">DD:speedIY</text>
</g>
<!-- iyVel&#45;&gt;speed -->
<g id="edge2" class="edge">
<title>iyVel&#45;&gt;speed</title>
<path fill="none" stroke="black" d="M577.61,-90C579.92,-90 582.23,-90 584.54,-90"/>
<polygon fill="black" stroke="black" points="584.35,-93.5 594.35,-90 584.35,-86.5 584.35,-93.5"/>
</g>
<!-- projSpeed -->
<g id="node4" class="node">
<title>projSpeed</title>
<polygon fill="palegreen" stroke="black" points="869.12,-108 791.62,-108 791.62,-72 869.12,-72 869.12,-108"/>
<text text-anchor="middle" x="830.38" y="-84.95" font-family="Times,serif" font-size="14.00">GD:rectVel</text>
</g>
<!-- accelerationTM -->
<g id="node5" class="node">
<title>accelerationTM</title>
<polygon fill="pink" stroke="black" points="883.38,-36 777.38,-36 777.38,0 883.38,0 883.38,-36"/>
<text text-anchor="middle" x="830.38" y="-12.95" font-family="Times,serif" font-size="14.00">TM:acceleration</text>
</g>
<!-- projSpeed&#45;&gt;accelerationTM -->
<g id="edge3" class="edge">
<title>projSpeed&#45;&gt;accelerationTM</title>
<path fill="none" stroke="black" d="M830.38,-71.7C830.38,-64.24 830.38,-55.32 830.38,-46.97"/>
<polygon fill="black" stroke="black" points="833.88,-47.1 830.38,-37.1 826.88,-47.1 833.88,-47.1"/>
</g>
<!-- projPos -->
<g id="node6" class="node">
<title>projPos</title>
<polygon fill="palegreen" stroke="black" points="474.88,-108 395.88,-108 395.88,-72 474.88,-72 474.88,-108"/>
<text text-anchor="middle" x="435.38" y="-84.95" font-family="Times,serif" font-size="14.00">GD:rectPos</text>
</g>
<!-- projPos&#45;&gt;projSpeed -->
<g id="edge5" class="edge">
<title>projPos&#45;&gt;projSpeed</title>
<path fill="none" stroke="black" d="M458.5,-108.47C468.59,-115.41 480.95,-122.46 493.38,-126 553.21,-143.06 713.6,-143.29 773.38,-126 782.09,-123.48 790.75,-119.19 798.59,-114.42"/>
<polygon fill="black" stroke="black" points="800.24,-116.87 806.7,-108.47 796.41,-111.01 800.24,-116.87"/>
</g>
<!-- velocityTM -->
<g id="node7" class="node">
<title>velocityTM</title>
<polygon fill="pink" stroke="black" points="477.5,-36 393.25,-36 393.25,0 477.5,0 477.5,-36"/>
<text text-anchor="middle" x="435.38" y="-12.95" font-family="Times,serif" font-size="14.00">TM:velocity</text>
</g>
<!-- projPos&#45;&gt;velocityTM -->
<g id="edge4" class="edge">
<title>projPos&#45;&gt;velocityTM</title>
<path fill="none" stroke="black" d="M435.38,-71.7C435.38,-64.24 435.38,-55.32 435.38,-46.97"/>
<polygon fill="black" stroke="black" points="438.88,-47.1 435.38,-37.1 431.88,-47.1 438.88,-47.1"/>
</g>
<!-- velocity -->
<g id="node8" class="node">
<title>velocity</title>
<polygon fill="palegreen" stroke="black" points="773.38,-108 697.38,-108 697.38,-72 773.38,-72 773.38,-108"/>
<text text-anchor="middle" x="735.38" y="-84.95" font-family="Times,serif" font-size="14.00">GD:velVec</text>
</g>
<!-- velocity&#45;&gt;projSpeed -->
<g id="edge6" class="edge">
<title>velocity&#45;&gt;projSpeed</title>
<path fill="none" stroke="black" d="M773.6,-90C775.91,-90 778.22,-90 780.53,-90"/>
<polygon fill="black" stroke="black" points="780.34,-93.5 790.34,-90 780.34,-86.5 780.34,-93.5"/>
</g>
<!-- position -->
<g id="node9" class="node">
<title>position</title>
<polygon fill="palegreen" stroke="black" points="377.5,-108 299.25,-108 299.25,-72 377.5,-72 377.5,-108"/>
<text text-anchor="middle" x="338.38" y="-84.95" font-family="Times,serif" font-size="14.00">GD:posVec</text>
</g>
<!-- position&#45;&gt;projPos -->
<g id="edge7" class="edge">
<title>position&#45;&gt;projPos</title>
<path fill="none" stroke="black" d="M377.78,-90C380.12,-90 382.47,-90 384.81,-90"/>
<polygon fill="black" stroke="black" points="384.78,-93.5 394.78,-90 384.78,-86.5 384.78,-93.5"/>
</g>
<!-- flightduration -->
<g id="node10" class="node">
<title>flightduration</title>
<polygon fill="#fff68f" stroke="black" points="516,-180 374.75,-180 374.75,-144 516,-144 516,-180"/>
<text text-anchor="middle" x="445.38" y="-156.95" font-family="Times,serif" font-size="14.00">IM:calOfLandingTime</text>
</g>
<!-- flightduration&#45;&gt;iyVel -->
<g id="edge8" class="edge">
<title>flightduration&#45;&gt;iyVel</title>
<path fill="none" stroke="black" d="M467.62,-143.7C478.76,-135.03 492.43,-124.4 504.57,-114.96"/>
<polygon fill="black" stroke="black" points="506.33,-117.25 512.07,-108.35 502.03,-111.72 506.33,-117.25"/>
</g>
<!-- flightduration&#45;&gt;position -->
<g id="edge9" class="edge">
<title>flightduration&#45;&gt;position</title>
<path fill="none" stroke="black" d="M418.65,-143.52C405.02,-134.6 388.25,-123.63 373.58,-114.03"/>
<polygon fill="black" stroke="black" points="376.04,-110.81 365.76,-108.26 372.21,-116.66 376.04,-110.81"/>
</g>
<!-- landingposition -->
<g id="node11" class="node">
<title>landingposition</title>
<polygon fill="#fff68f" stroke="black" points="356.62,-180 222.12,-180 222.12,-144 356.62,-144 356.62,-180"/>
<text text-anchor="middle" x="289.38" y="-156.95" font-family="Times,serif" font-size="14.00">IM:calOfLandingDist</text>
</g>
<!-- landingposition&#45;&gt;ixVel -->
<g id="edge10" class="edge">
<title>landingposition&#45;&gt;ixVel</title>
<path fill="none" stroke="black" d="M277.02,-143.7C271.26,-135.64 264.3,-125.89 257.93,-116.98"/>
<polygon fill="black" stroke="black" points="260.25,-115.21 251.59,-109.1 254.56,-119.28 260.25,-115.21"/>
</g>
<!-- landingposition&#45;&gt;position -->
<g id="edge11" class="edge">
<title>landingposition&#45;&gt;position</title>
<path fill="none" stroke="black" d="M301.49,-143.7C307.12,-135.64 313.95,-125.89 320.19,-116.98"/>
<polygon fill="black" stroke="black" points="323.53,-119.3 326.4,-109.1 317.8,-115.29 323.53,-119.3"/>
</g>
<!-- landingposition&#45;&gt;flightduration -->
<g id="edge12" class="edge">
<title>landingposition&#45;&gt;flightduration</title>
<path fill="none" stroke="black" d="M357.02,-162C359.17,-162 361.33,-162 363.49,-162"/>
<polygon fill="black" stroke="black" points="363.27,-165.5 373.27,-162 363.27,-158.5 363.27,-165.5"/>
</g>
<!-- offset -->
<g id="node12" class="node">
<title>offset</title>
<polygon fill="#fff68f" stroke="black" points="203.88,-180 118.88,-180 118.88,-144 203.88,-144 203.88,-180"/>
<text text-anchor="middle" x="161.38" y="-156.95" font-family="Times,serif" font-size="14.00">IM:offsetIM</text>
</g>
<!-- offset&#45;&gt;landingposition -->
<g id="edge13" class="edge">
<title>offset&#45;&gt;landingposition</title>
<path fill="none" stroke="black" d="M204.38,-162C206.53,-162 208.69,-162 210.85,-162"/>
<polygon fill="black" stroke="black" points="210.64,-165.5 220.64,-162 210.64,-158.5 210.64,-165.5"/>
</g>
<!-- message -->
<g id="node13" class="node">
<title>message</title>
<polygon fill="#fff68f" stroke="black" points="100.75,-180 0,-180 0,-144 100.75,-144 100.75,-180"/>
<text text-anchor="middle" x="50.38" y="-156.95" font-family="Times,serif" font-size="14.00">IM:messageIM</text>
</g>
<!-- message&#45;&gt;offset -->
<g id="edge14" class="edge">
<title>message&#45;&gt;offset</title>
<path fill="none" stroke="black" d="M101.11,-162C103.28,-162 105.46,-162 107.64,-162"/>
<polygon fill="black" stroke="black" points="107.53,-165.5 117.53,-162 107.53,-158.5 107.53,-165.5"/>
</g>
</g>
</svg>
